<svg xmlns="http://www.w3.org/2000/svg" width="36.857" height="45.291" viewBox="1423.4 2404.157 36.857 45.291"><path d="M1448.514 2411.375a9.92 9.92 0 0 0 2.403-7.218 10.062 10.062 0 0 0-6.795 3.437 9.464 9.464 0 0 0-2.263 6.999 8.338 8.338 0 0 0 6.655-3.218Zm5.707 16.847a10.217 10.217 0 0 1 4.885-8.611 10.53 10.53 0 0 0-8.283-4.526c-3.53-.368-6.787 2.06-8.666 2.06-1.878 0-4.533-2.02-7.476-1.974a11.14 11.14 0 0 0-9.394 5.731c-3.985 6.928-1.018 17.223 2.967 22.82 1.808 2.732 4.07 5.84 7.045 5.723 2.975-.118 3.962-1.856 7.43-1.856 3.468 0 4.525 1.856 7.468 1.785 2.944-.07 5.026-2.802 6.928-5.542a25.064 25.064 0 0 0 3.131-6.451 9.98 9.98 0 0 1-6.035-9.16Z" fill="#fff" fill-rule="evenodd" data-name="Path 2394"/></svg>