<?xml version="1.0" encoding="UTF-8"?>
<svg id="Calque_1" data-name="Calque 1" xmlns="http://www.w3.org/2000/svg" viewBox="0 0 939.47 566.32">
  <defs>
    <style>
      .cls-1 {
        fill: #0d3260;
      }
    </style>
  </defs>
  <path class="cls-1" d="m397.06.04c.37.12.74.34,1.11.35,11.82.4,23.05,3.52,33.95,7.81,17.7,6.95,35.3,14.15,52.97,21.19,37.41,14.91,74.83,29.78,112.25,44.66,1.11.44,2.21.92,3.31,1.4,5.68,2.5,8.39,6.95,8.33,13.07-.04,4.8-.32,9.59-.33,14.39-.03,15.03,0,30.07.02,45.1v3.06c-.68-.06-1.2-.04-1.7-.15-6.06-1.23-11.8-3.4-17.51-5.71-56.38-22.76-112.79-45.47-169.18-68.22-7.3-2.94-14.87-4.51-22.71-3.99-4.44.3-8.86,1.19-13.24,2.05-22.1,4.35-44.19,8.76-66.28,13.18-21.15,4.23-42.3,8.48-63.44,12.74-23.41,4.72-46.83,9.45-70.24,14.19-20.04,4.06-40.08,8.15-60.13,12.2-25.06,5.06-50.11,10.12-75.18,15.13-15.82,3.16-31.67,6.23-47.5,9.34-.31.06-.62.1-1.18.18-.07-.73-.2-1.4-.2-2.07-.07-12.87-.21-25.75-.15-38.62.04-7.75.45-15.5.61-23.25.04-1.81.64-3.27,1.85-4.53,2.96-3.06,6.43-5.3,10.63-6.15,27.25-5.5,54.51-10.97,81.76-16.44,28.27-5.67,56.55-11.35,84.83-17,26.95-5.38,53.91-10.72,80.86-16.09,25.31-5.04,50.61-10.1,75.91-15.16,9.79-1.96,19.59-3.89,29.36-5.94,2.73-.57,5.41-1.41,8.04-2.35,6.37-2.27,12.89-3.7,19.65-4.01.7-.03,1.39-.26,2.08-.4h1.44v.04Z"/>
  <path class="cls-1" d="m939.26,566.32c-.76-.25-1.21-.36-1.64-.53-23.27-9.37-46.6-18.61-69.79-28.19-10.7-4.42-21.2-9.35-31.67-14.31-12.08-5.72-24.6-9.91-37.88-11.59-9.72-1.23-19.45-1.08-29.19.06-10.52,1.24-20.63,4.34-30.93,6.53-18.13,3.85-36.27,7.65-54.43,11.34-18.79,3.81-37.63,7.36-56.42,11.2-14.87,3.03-29.23,1.63-43.25-4.08-53.13-21.65-106.28-43.24-159.4-64.93-13.07-5.34-26.49-6.45-40.23-3.72-25.31,5.03-50.58,10.27-75.87,15.39-22.55,4.57-45.11,9.1-67.66,13.64-24.2,4.87-48.4,9.73-72.6,14.59-22.01,4.42-44.02,8.82-66.03,13.23-22.01,4.41-44.02,8.82-66.03,13.22-9.48,1.9-18.95,3.83-28.45,5.63-2.33.44-4.74.42-7.28.63-.09-.86-.21-1.47-.21-2.08.02-17.91.02-35.82.09-53.74,0-3.52.35-7.03.38-10.55.02-1.97.91-3.34,2.36-4.47,3.27-2.54,6.92-4.33,10.98-5.13,16.38-3.23,32.77-6.44,49.16-9.6,22.04-4.25,44.1-8.44,66.14-12.68,21.18-4.07,42.37-8.12,63.54-12.26,23.83-4.66,47.66-9.38,71.47-14.14,25.15-5.03,50.28-10.14,75.42-15.19,19.42-3.9,38.85-7.78,58.29-11.63,5.61-1.11,11.13-.72,16.49,1.39,59.2,23.24,118.42,46.45,177.59,69.78,4.43,1.75,8.54,4.33,12.79,6.54,1.19.62,2.37,1.27,3.79,2.03.14-.76.31-1.26.31-1.77.04-6.72.14-13.43.07-20.15-.05-4.63-.38-9.26-.46-13.9-.03-1.83.19-3.67.45-5.48.62-4.3,2.95-7.47,6.95-9.08,3.32-1.33,6.76-2.5,10.25-3.25,15.47-3.31,30.96-6.49,46.46-9.64,33.74-6.87,67.52-13.53,101.04-21.41,6.71-1.58,13.5-2.51,20.43-2.27,7.29.25,14.28,1.84,20.88,4.87,31.39,14.4,63.63,26.77,95.57,39.86,5.47,2.24,10.91,4.55,16.39,6.79,2.86,1.17,5.33,2.89,7.51,5.06,2.59,2.57,4.01,5.53,4.25,9.32.82,13.03.27,26.06.3,39.09,0,1.2-.03,2.4-.07,3.6,0,.13-.16.26-.36.57-.83-.26-1.73-.54-2.62-.83-16.74-5.45-32.82-12.59-49.08-19.25-26.92-11.02-53.8-22.12-80.74-33.08-3.45-1.4-7.14-2.27-10.77-3.2-2.99-.77-6.03-.5-9.04.09-21.8,4.24-43.61,8.44-65.4,12.72-20.54,4.03-41.07,8.11-61.6,12.19-15.2,3.02-30.41,6.02-45.59,9.15-2.14.44-4.15,1.55-6.27,2.37v52.07c0,.64-.05,1.3.1,1.91.08.32.54.54,1.25,1.17.07-1.36.15-2.2.15-3.04.02-7.92.03-15.83.05-23.75,0-.48,0-.96.03-1.44.29-5.47,2.69-8.85,7.92-10.48,3.34-1.04,6.82-1.65,10.26-2.36,33.34-6.84,66.7-13.55,100.01-20.53,16.96-3.55,33.84-7.55,50.74-11.41,12.41-2.83,24.45-1.92,36.11,3.25,37.05,16.42,74.71,31.35,112.35,46.33,1.85.74,3.69,1.57,5.4,2.57,4.82,2.82,7.22,7.11,7.24,12.68.02,4.88-.06,9.76-.06,14.63,0,8.88.02,17.75.04,26.63v3.01h.02Z"/>
  <path class="cls-1" d="m.3,346.6c-.05-.74-.12-1.36-.13-1.98-.06-10.4-.23-20.79-.15-31.19.08-10.23.44-20.46.58-30.69.03-2.02.78-3.55,2.18-4.85,2.8-2.61,5.99-4.47,9.8-5.23,30.7-6.17,61.4-12.38,92.11-18.54,26.01-5.22,52.03-10.36,78.04-15.57,26.63-5.34,53.26-10.71,79.88-16.12,26.85-5.46,53.7-10.96,80.54-16.48,12.68-2.6,25.33-5.33,38.02-7.89,7.22-1.46,14.53-2.28,21.92-2.14,9.54.18,18.75,2.05,27.51,5.83,53.64,23.16,108.03,44.47,162.04,66.72,3.73,1.54,7.18,3.48,10.35,5.95,2.46,1.91,4.99,3.74,7.43,5.69,1.09.87,2.12,1.09,3.52.8,11.5-2.37,23.04-4.57,34.53-6.99,29-6.12,57.99-12.29,86.97-18.51,17.81-3.83,35.6-7.73,53.36-11.75,5.08-1.15,9.81-.48,14.5,1.47,14.17,5.89,28.34,11.76,42.52,17.62,26.96,11.14,53.92,22.26,80.87,33.42,1.84.76,3.66,1.62,5.37,2.63,4.62,2.75,6.98,6.93,7.19,12.27.11,2.79-.05,5.6-.05,8.39,0,10.72.02,21.43.03,32.15v3.15c-1.1-.36-1.91-.62-2.72-.89-17.77-5.9-34.86-13.51-52.16-20.59-25.81-10.57-51.6-21.18-77.4-31.77-4.53-1.86-9.15-3.32-14.08-3.69-3.82-.29-7.47.63-11.15,1.34-38.59,7.45-77.18,14.96-115.77,22.42-15.77,3.05-31.55,6.01-47.32,9.05-1.79.35-3.58.86-5.28,1.52-3.75,1.47-5.67,4.35-5.64,8.36.01,2.28.38,4.56.61,7.13-.97-.35-1.85-.65-2.72-.97-47.74-17.68-94.94-36.72-142.23-55.55-15.59-6.21-31.37-11.92-47.06-17.86-6.18-2.34-12.57-2.84-19.11-2.37-9.84.71-19.43,2.93-29.07,4.78-20.16,3.86-40.31,7.82-60.47,11.74-20.07,3.91-40.15,7.82-60.22,11.74-21.64,4.24-43.27,8.49-64.91,12.74s-43.27,8.51-64.9,12.77c-19.83,3.9-39.66,7.8-59.5,11.7-15.91,3.13-31.83,6.23-47.74,9.39-3.3.66-6.61.82-10.1.87v-.02Z"/>
  <path class="cls-1" d="m611.28,261.9c-.18-2.21-.23-4.13-.51-6.01-.49-3.29-2.33-5.75-5.19-7.38-1.45-.83-2.98-1.59-4.57-2.08-12.4-3.79-24.36-8.76-36.41-13.46-45.78-17.88-91.51-35.87-137.24-53.86-11.02-4.33-22.37-6.72-34.22-5.79-5.64.44-11.26,1.41-16.81,2.5-23.83,4.67-47.64,9.48-71.46,14.22-22.25,4.43-44.51,8.85-66.77,13.25-22.96,4.54-45.93,9.05-68.9,13.57-24.14,4.75-48.29,9.51-72.43,14.25-23.05,4.53-46.1,9.05-69.15,13.57-6.74,1.32-13.47,2.71-20.24,3.9-2.24.39-4.58.25-7.12.36-.07-1.09-.15-1.86-.15-2.63-.04-13.28-.14-26.55-.08-39.83.03-7.11.37-14.23.51-21.34.04-1.97.8-3.56,2.1-4.94,2.63-2.81,5.67-4.81,9.57-5.54,19.32-3.6,38.64-7.23,57.93-10.97,17.26-3.34,34.5-6.76,51.72-10.27,23.56-4.81,47.1-9.73,70.65-14.61,25.03-5.19,50.06-10.38,75.1-15.58,24.33-5.05,48.65-10.11,72.98-15.16,19.64-4.07,39.28-8.1,58.91-12.19,4.39-.91,8.55-.3,12.66,1.38,16.43,6.68,32.87,13.35,49.33,19.98,44.62,17.98,89.25,35.93,133.86,53.93,2.36.95,4.68,2.1,6.82,3.46,4.03,2.56,6.32,6.33,6.54,11.13.13,2.78.08,5.6-.2,8.37-1.34,13.14-1.44,26.34-1.96,39.52,0,.23.11.46.16.68,2.3-.52,2.31-.52,2.67-2.62.59-3.38,1.15-6.77,1.75-10.15.14-.78.36-1.56.56-2.33,1.16-4.45,3.88-7.54,8.29-8.84,3.9-1.16,7.86-2.18,11.85-2.96,24.31-4.73,48.65-9.34,72.96-14.06,22.67-4.41,45.28-9.08,67.68-14.7,14.18-3.56,28.12-2.43,41.71,2.61,9.14,3.39,18.11,7.21,27.16,10.83,29.16,11.67,58.31,23.35,87.48,34.98,3.2,1.28,5.97,3.02,8.12,5.73,1.44,1.82,2.26,3.82,2.28,6.17.07,12.71.16,25.42.24,38.13.01,2.37,0,4.74,0,7.4-1.2-.39-2.02-.66-2.84-.93-16.06-5.22-31.49-12.03-47.09-18.42-27.51-11.27-55.02-22.53-82.53-33.79-8.06-3.3-16.33-4.1-24.91-2.4-34.79,6.92-69.6,13.72-104.4,20.63-19.44,3.86-38.85,7.82-58.27,11.73-2.66.53-5.34.78-8.1.55h-.04Z"/>
  <path class="cls-1" d="m609.09,389.78c.65-12.57,1.3-25.14,1.96-37.93,2.11-.46,4.11-.93,6.11-1.34,34.75-7.09,69.52-14.09,104.25-21.29,17.83-3.7,35.59-7.74,53.39-11.63,7.69-1.68,15.42-2.69,23.32-1.78,6.09.7,11.93,2.29,17.49,4.81,36.04,16.34,72.9,30.7,109.68,45.23,2.3.91,4.59,1.89,6.74,3.09,4.71,2.65,7.08,6.83,7.21,12.19.1,3.91-.05,7.83-.05,11.75,0,10.16.02,20.31.03,30.47,0,.63-.06,1.26-.09,2.05-.63-.16-1.17-.24-1.67-.44-38.03-15.5-76.07-30.99-114.09-46.52-3.92-1.6-7.79-3.34-11.6-5.18-10.09-4.86-20.68-6.02-31.57-3.96-15.3,2.9-30.55,6.1-45.83,9.13-20.53,4.07-41.07,8.12-61.6,12.16-21.32,4.2-42.64,8.37-63.96,12.57-.54.11-1.05.31-1.84.54v2.84c-.04,8.48-.04,16.95-.13,25.43-.02,1.58-.19,3.2-.56,4.74-.93,3.86-3.11,5.44-6.98,4.86-2.27-.34-4.53-1-6.67-1.84-20.99-8.18-41.97-16.41-62.94-24.66-36.73-14.46-73.46-28.91-110.16-43.43-8.26-3.27-16.8-4.18-25.44-2.82-12.15,1.92-24.22,4.32-36.3,6.64-20.24,3.88-40.46,7.86-60.69,11.8-20.94,4.08-41.87,8.17-62.81,12.25-21.64,4.22-43.28,8.43-64.92,12.65-23.52,4.59-47.04,9.19-70.56,13.77-25.01,4.87-50.03,9.73-75.05,14.6-5.25,1.02-10.5,2.11-15.77,3.05-2.42.43-4.89.59-7.51.89-.06-.96-.15-1.66-.14-2.36,0-16.31,0-32.63.05-48.94.02-4.56.33-9.11.37-13.67.02-1.79.72-3.06,2.06-4.1,2.83-2.18,5.96-3.72,9.47-4.44,10.8-2.22,21.6-4.43,32.41-6.61,21.06-4.25,42.13-8.47,63.2-12.71,22.71-4.56,45.43-9.11,68.14-13.69,24.28-4.9,48.55-9.78,72.81-14.74,28.25-5.78,56.5-11.6,84.73-17.48,16.27-3.39,32.52-6.82,48.75-10.4,13.54-2.98,26.9-2.35,39.95,2.12,9.06,3.1,17.98,6.65,26.84,10.31,46.68,19.28,93.31,38.64,139.95,58.01,3.32,1.38,6.56,2.93,9.79,4.53,4.28,2.11,6.92,5.57,7.9,10.26.49,2.35.93,4.7,1.42,7.05.15.75.36,1.48.55,2.23.13-.02.25-.04.38-.05h-.02Z"/>
</svg>