<svg xmlns="http://www.w3.org/2000/svg" width="326" height="130" viewBox="0 0 326 130">
  <g id="Groupe_1782" data-name="Groupe 1782" transform="translate(-0.074 -0.477)" opacity="0.7">
    <rect id="Rectangle_1718" data-name="Rectangle 1718" width="27" height="40" rx="5" transform="translate(132.074 82.477)" fill="#56a0c5"/>
    <rect id="Rectangle_1720" data-name="Rectangle 1720" width="59" height="14" rx="5" transform="translate(116.074 116.477)" fill="#2b769b"/>
    <g id="Rectangle_1719" data-name="Rectangle 1719" transform="translate(72.074 0.477)" fill="#fff" stroke="#56a0c5" stroke-width="3">
      <rect width="147" height="87" rx="5" stroke="none"/>
      <rect x="1.5" y="1.5" width="144" height="84" rx="3.5" fill="none"/>
    </g>
    <g id="Rectangle_1721" data-name="Rectangle 1721" transform="translate(194.074 50.477)" fill="#fff" stroke="#56a0c5" stroke-width="3">
      <rect width="122" height="72" rx="5" stroke="none"/>
      <rect x="1.5" y="1.5" width="119" height="69" rx="3.5" fill="none"/>
    </g>
    <g id="Rectangle_1723" data-name="Rectangle 1723" transform="translate(18.074 45.477)" fill="#fff" stroke="#56a0c5" stroke-width="3">
      <rect width="65" height="85" rx="5" stroke="none"/>
      <rect x="1.5" y="1.5" width="62" height="82" rx="3.5" fill="none"/>
    </g>
    <g id="Rectangle_1724" data-name="Rectangle 1724" transform="translate(0.074 72.477)" fill="#fff" stroke="#56a0c5" stroke-width="3">
      <rect width="27" height="58" rx="5" stroke="none"/>
      <rect x="1.5" y="1.5" width="24" height="55" rx="3.5" fill="none"/>
    </g>
    <rect id="Rectangle_1722" data-name="Rectangle 1722" width="142" height="8" rx="4" transform="translate(184.074 122.477)" fill="#56a0c5"/>
    <g id="KEI" transform="translate(122.29 19.67)">
      <path id="Tracé_1" data-name="Tracé 1" d="M198.57,611.93h4.754a.43.43,0,0,1,.43.43v3.1a.43.43,0,0,0,.793.233c.764-1.189,1.543-2.392,2.332-3.57a.43.43,0,0,1,.359-.19h5.543a.43.43,0,0,1,.317.722l-3.953,4.219a.43.43,0,0,0-.044.534l4.485,6.728a.43.43,0,0,1-.359.669h-5.487a.43.43,0,0,1-.379-.227l-1.987-3.707a.43.43,0,0,0-.692-.093l-.807.851a.43.43,0,0,0-.118.3v2.452a.43.43,0,0,1-.43.43H198.57a.43.43,0,0,1-.43-.43V612.36A.43.43,0,0,1,198.57,611.93Z" transform="translate(-198.006 -582.999)" fill="#1767b1"/>
      <path id="Tracé_2" data-name="Tracé 2" d="M484.279,620.033h-5.666a.43.43,0,0,0-.43.43v.455a.43.43,0,0,0,.43.43h6.4a.43.43,0,0,1,.423.511l-.495,2.6a.43.43,0,0,1-.423.35H473.16a.43.43,0,0,1-.43-.43V612.36a.43.43,0,0,1,.43-.43h11.448a.43.43,0,0,1,.43.43v2.614a.43.43,0,0,1-.43.43h-6a.43.43,0,0,0-.43.43v.291a.43.43,0,0,0,.43.43h5.666a.43.43,0,0,1,.43.43V619.6A.43.43,0,0,1,484.279,620.033Z" transform="translate(-452.902 -582.999)" fill="#1767b1"/>
      <path id="Tracé_3" data-name="Tracé 3" d="M730.823,612.36v12.015a.43.43,0,0,1-.43.43H725.62a.43.43,0,0,1-.43-.43V612.36a.43.43,0,0,1,.43-.43h4.772a.43.43,0,0,1,.431.43Z" transform="translate(-687.255 -582.999)" fill="#1767b1"/>
      <path id="Tracé_4" data-name="Tracé 4" d="M18.869,3.4,0,7.17v-3.4L18.869,0Z" fill="#1767b1"/>
      <path id="Tracé_5" data-name="Tracé 5" d="M18.869,66.536,0,70.31v-3.4L18.869,63.14Z" transform="translate(0 -58.611)" fill="#1767b1"/>
      <path id="Tracé_6" data-name="Tracé 6" d="M18.869,129.676,0,133.45v-3.4l18.869-3.773Z" transform="translate(0 -117.223)" fill="#1767b1"/>
      <path id="Tracé_7" data-name="Tracé 7" d="M18.869,192.807,0,196.58v-3.4l18.869-3.774Z" transform="translate(0 -175.825)" fill="#1767b1"/>
      <path id="Tracé_8" data-name="Tracé 8" d="M18.869,255.947,0,259.72v-3.4l18.869-3.774Z" transform="translate(0 -234.437)" fill="#1767b1"/>
      <path id="Tracé_9" data-name="Tracé 9" d="M259.77,3.4,269.2,7.17v-3.4L259.77,0Z" transform="translate(-241.139)" fill="#1767b1"/>
      <path id="Tracé_10" data-name="Tracé 10" d="M259.77,66.536,269.2,70.31v-3.4L259.77,63.14Z" transform="translate(-241.139 -58.611)" fill="#1767b1"/>
      <path id="Tracé_11" data-name="Tracé 11" d="M259.77,129.676l9.434,3.774v-3.4l-9.434-3.773Z" transform="translate(-241.139 -117.223)" fill="#1767b1"/>
      <path id="Tracé_12" data-name="Tracé 12" d="M259.77,192.807l9.434,3.773v-3.4l-9.434-3.774Z" transform="translate(-241.139 -175.825)" fill="#1767b1"/>
      <path id="Tracé_13" data-name="Tracé 13" d="M259.77,255.947l9.434,3.773v-3.4l-9.434-3.774Z" transform="translate(-241.139 -234.437)" fill="#1767b1"/>
      <path id="Tracé_14" data-name="Tracé 14" d="M399.978,113.43v2.426l-.113.022-8.555,1.713v-2.426l8.5-1.7.057-.011Z" transform="translate(-363.244 -105.295)" fill="#1767b1"/>
      <path id="Tracé_15" data-name="Tracé 15" d="M399.978,158.57V161l-.113.023-8.555,1.713V160.3l8.5-1.7.057-.011Z" transform="translate(-363.244 -147.197)" fill="#1767b1"/>
      <path id="Tracé_16" data-name="Tracé 16" d="M399.978,203.66v2.426l-.113.023-8.555,1.713V205.4l8.5-1.7.057-.011Z" transform="translate(-363.244 -189.053)" fill="#1767b1"/>
      <path id="Tracé_17" data-name="Tracé 17" d="M399.978,248.81v2.426l-.113.022-8.555,1.713v-2.426l8.5-1.7.057-.011Z" transform="translate(-363.244 -230.965)" fill="#1767b1"/>
      <path id="Tracé_18" data-name="Tracé 18" d="M399.978,293.95v2.426l-.113.023-8.555,1.709v-2.426l8.5-1.7.057-.011Z" transform="translate(-363.244 -272.867)" fill="#1767b1"/>
      <path id="Tracé_19" data-name="Tracé 19" d="M509.81,115.857l6.743,2.7v-2.427l-6.743-2.7Z" transform="translate(-473.245 -105.295)" fill="#1767b1"/>
      <path id="Tracé_20" data-name="Tracé 20" d="M509.81,160.977l6.743,2.7v-2.427l-6.743-2.7Z" transform="translate(-473.245 -147.178)" fill="#1767b1"/>
      <path id="Tracé_21" data-name="Tracé 21" d="M509.81,206.107l6.743,2.7v-2.427l-6.743-2.7Z" transform="translate(-473.245 -189.072)" fill="#1767b1"/>
      <path id="Tracé_22" data-name="Tracé 22" d="M509.81,251.227l6.743,2.7V251.5l-6.743-2.7Z" transform="translate(-473.245 -230.956)" fill="#1767b1"/>
      <path id="Tracé_23" data-name="Tracé 23" d="M509.81,296.348l6.743,2.7v-2.427l-6.743-2.7Z" transform="translate(-473.245 -272.839)" fill="#1767b1"/>
    </g>
    <g id="KEI-2" data-name="KEI" transform="translate(240.074 73.744)">
      <path id="Tracé_1-2" data-name="Tracé 1" d="M198.444,611.93H201.8a.3.3,0,0,1,.3.3v2.188a.3.3,0,0,0,.56.165c.54-.84,1.091-1.69,1.648-2.522a.3.3,0,0,1,.253-.134h3.916a.3.3,0,0,1,.224.51l-2.793,2.981a.3.3,0,0,0-.031.377l3.169,4.754a.3.3,0,0,1-.253.473h-3.877a.3.3,0,0,1-.268-.16l-1.4-2.62a.3.3,0,0,0-.489-.066l-.57.6a.3.3,0,0,0-.084.209v1.733a.3.3,0,0,1-.3.3h-3.36a.3.3,0,0,1-.3-.3v-8.489A.3.3,0,0,1,198.444,611.93Z" transform="translate(-198.045 -591.488)" fill="#1767b1"/>
      <path id="Tracé_2-2" data-name="Tracé 2" d="M480.89,617.655h-4a.3.3,0,0,0-.3.3v.322a.3.3,0,0,0,.3.3h4.523a.3.3,0,0,1,.3.361l-.35,1.834a.3.3,0,0,1-.3.247h-8.026a.3.3,0,0,1-.3-.3v-8.489a.3.3,0,0,1,.3-.3h8.089a.3.3,0,0,1,.3.3v1.847a.3.3,0,0,1-.3.3h-4.238a.3.3,0,0,0-.3.3v.206a.3.3,0,0,0,.3.3h4a.3.3,0,0,1,.3.3v1.847A.3.3,0,0,1,480.89,617.655Z" transform="translate(-458.72 -591.488)" fill="#1767b1"/>
      <path id="Tracé_3-2" data-name="Tracé 3" d="M729.17,612.234v8.489a.3.3,0,0,1-.3.3h-3.372a.3.3,0,0,1-.3-.3v-8.489a.3.3,0,0,1,.3-.3h3.372a.3.3,0,0,1,.3.3Z" transform="translate(-698.386 -591.488)" fill="#1767b1"/>
      <path id="Tracé_4-2" data-name="Tracé 4" d="M13.332,2.4,0,5.066v-2.4L13.332,0Z" fill="#1767b1"/>
      <path id="Tracé_5-2" data-name="Tracé 5" d="M13.332,65.54,0,68.206v-2.4L13.332,63.14Z" transform="translate(0 -59.94)" fill="#1767b1"/>
      <path id="Tracé_6-2" data-name="Tracé 6" d="M13.332,128.68,0,131.346v-2.4l13.332-2.666Z" transform="translate(0 -119.881)" fill="#1767b1"/>
      <path id="Tracé_7-2" data-name="Tracé 7" d="M13.332,191.81,0,194.476v-2.4l13.332-2.667Z" transform="translate(0 -179.811)" fill="#1767b1"/>
      <path id="Tracé_8-2" data-name="Tracé 8" d="M13.332,254.95,0,257.616v-2.4l13.332-2.667Z" transform="translate(0 -239.752)" fill="#1767b1"/>
      <path id="Tracé_9-2" data-name="Tracé 9" d="M259.77,2.4l6.666,2.667v-2.4L259.77,0Z" transform="translate(-246.606)" fill="#1767b1"/>
      <path id="Tracé_10-2" data-name="Tracé 10" d="M259.77,65.54l6.666,2.667v-2.4L259.77,63.14Z" transform="translate(-246.606 -59.94)" fill="#1767b1"/>
      <path id="Tracé_11-2" data-name="Tracé 11" d="M259.77,128.68l6.666,2.667v-2.4l-6.666-2.666Z" transform="translate(-246.606 -119.881)" fill="#1767b1"/>
      <path id="Tracé_12-2" data-name="Tracé 12" d="M259.77,191.81l6.666,2.666v-2.4l-6.666-2.667Z" transform="translate(-246.606 -179.811)" fill="#1767b1"/>
      <path id="Tracé_13-2" data-name="Tracé 13" d="M259.77,254.95l6.666,2.666v-2.4l-6.666-2.667Z" transform="translate(-246.606 -239.752)" fill="#1767b1"/>
      <path id="Tracé_14-2" data-name="Tracé 14" d="M397.434,113.43v1.714l-.08.016-6.045,1.211v-1.714l6-1.2.04-.008Z" transform="translate(-371.48 -107.682)" fill="#1767b1"/>
      <path id="Tracé_15-2" data-name="Tracé 15" d="M397.434,158.57v1.714l-.08.016-6.045,1.21v-1.717l6-1.2.04-.008Z" transform="translate(-371.48 -150.534)" fill="#1767b1"/>
      <path id="Tracé_16-2" data-name="Tracé 16" d="M397.434,203.66v1.714l-.08.016L391.31,206.6v-1.714l6-1.2.04-.008Z" transform="translate(-371.48 -193.339)" fill="#1767b1"/>
      <path id="Tracé_17-2" data-name="Tracé 17" d="M397.434,248.81v1.714l-.08.016-6.045,1.211v-1.714l6-1.2.04-.008Z" transform="translate(-371.48 -236.201)" fill="#1767b1"/>
      <path id="Tracé_18-2" data-name="Tracé 18" d="M397.434,293.95v1.714l-.08.016-6.045,1.208v-1.714l6-1.2.04-.008Z" transform="translate(-371.48 -279.053)" fill="#1767b1"/>
      <path id="Tracé_19-2" data-name="Tracé 19" d="M509.81,115.145l4.764,1.905v-1.715l-4.764-1.905Z" transform="translate(-483.974 -107.682)" fill="#1767b1"/>
      <path id="Tracé_20-2" data-name="Tracé 20" d="M509.81,160.265l4.764,1.906v-1.715l-4.764-1.906Z" transform="translate(-483.974 -150.515)" fill="#1767b1"/>
      <path id="Tracé_21-2" data-name="Tracé 21" d="M509.81,205.395l4.764,1.905v-1.715l-4.764-1.905Z" transform="translate(-483.974 -193.358)" fill="#1767b1"/>
      <path id="Tracé_22-2" data-name="Tracé 22" d="M509.81,250.515l4.764,1.906v-1.715L509.81,248.8Z" transform="translate(-483.974 -236.192)" fill="#1767b1"/>
      <path id="Tracé_23-2" data-name="Tracé 23" d="M509.81,295.635l4.764,1.905v-1.715l-4.764-1.906Z" transform="translate(-483.974 -279.025)" fill="#1767b1"/>
    </g>
    <g id="KEI-3" data-name="KEI" transform="translate(8.29 95.631)">
      <path id="Tracé_1-3" data-name="Tracé 1" d="M198.239,611.93h1.1a.1.1,0,0,1,.1.1v.715a.1.1,0,0,0,.183.054c.176-.275.356-.552.539-.824a.1.1,0,0,1,.083-.044h1.28a.1.1,0,0,1,.073.167l-.913.974a.1.1,0,0,0-.01.123l1.035,1.553a.1.1,0,0,1-.083.155h-1.267a.1.1,0,0,1-.088-.052l-.459-.856a.1.1,0,0,0-.16-.022l-.186.2a.1.1,0,0,0-.027.068v.566a.1.1,0,0,1-.1.1h-1.1a.1.1,0,0,1-.1-.1v-2.774A.1.1,0,0,1,198.239,611.93Z" transform="translate(-198.109 -605.25)" fill="#1767b1"/>
      <path id="Tracé_2-3" data-name="Tracé 2" d="M475.4,613.8h-1.308a.1.1,0,0,0-.1.1v.105a.1.1,0,0,0,.1.1h1.478a.1.1,0,0,1,.1.118l-.114.6a.1.1,0,0,1-.1.081h-2.623a.1.1,0,0,1-.1-.1v-2.774a.1.1,0,0,1,.1-.1h2.643a.1.1,0,0,1,.1.1v.6a.1.1,0,0,1-.1.1h-1.385a.1.1,0,0,0-.1.1v.067a.1.1,0,0,0,.1.1H475.4a.1.1,0,0,1,.1.1v.6A.1.1,0,0,1,475.4,613.8Z" transform="translate(-468.152 -605.25)" fill="#1767b1"/>
      <path id="Tracé_3-3" data-name="Tracé 3" d="M726.491,612.029V614.8a.1.1,0,0,1-.1.1h-1.1a.1.1,0,0,1-.1-.1v-2.774a.1.1,0,0,1,.1-.1h1.1a.1.1,0,0,1,.1.1Z" transform="translate(-716.431 -605.25)" fill="#1767b1"/>
      <path id="Tracé_4-3" data-name="Tracé 4" d="M4.357.784,0,1.655V.871L4.357,0Z" fill="#1767b1"/>
      <path id="Tracé_5-3" data-name="Tracé 5" d="M4.357,63.924,0,64.8v-.784l4.357-.871Z" transform="translate(0 -62.094)" fill="#1767b1"/>
      <path id="Tracé_6-3" data-name="Tracé 6" d="M4.357,127.064,0,127.935v-.784l4.357-.871Z" transform="translate(0 -124.189)" fill="#1767b1"/>
      <path id="Tracé_7-3" data-name="Tracé 7" d="M4.357,190.194,0,191.065v-.784l4.357-.871Z" transform="translate(0 -186.273)" fill="#1767b1"/>
      <path id="Tracé_8-3" data-name="Tracé 8" d="M4.357,253.334,0,254.206v-.784l4.357-.871Z" transform="translate(0 -248.368)" fill="#1767b1"/>
      <path id="Tracé_9-3" data-name="Tracé 9" d="M259.77.784l2.178.871V.871L259.77,0Z" transform="translate(-255.468)" fill="#1767b1"/>
      <path id="Tracé_10-3" data-name="Tracé 10" d="M259.77,63.924l2.178.871v-.784l-2.178-.871Z" transform="translate(-255.468 -62.094)" fill="#1767b1"/>
      <path id="Tracé_11-3" data-name="Tracé 11" d="M259.77,127.064l2.178.871v-.784l-2.178-.871Z" transform="translate(-255.468 -124.189)" fill="#1767b1"/>
      <path id="Tracé_12-3" data-name="Tracé 12" d="M259.77,190.194l2.178.871v-.784l-2.178-.871Z" transform="translate(-255.468 -186.273)" fill="#1767b1"/>
      <path id="Tracé_13-3" data-name="Tracé 13" d="M259.77,253.334l2.178.871v-.784l-2.178-.871Z" transform="translate(-255.468 -248.368)" fill="#1767b1"/>
      <path id="Tracé_14-3" data-name="Tracé 14" d="M393.311,113.43v.56l-.026.005-1.975.4v-.56l1.962-.393.013,0Z" transform="translate(-384.83 -111.552)" fill="#1767b1"/>
      <path id="Tracé_15-3" data-name="Tracé 15" d="M393.311,158.57v.56l-.026.005-1.975.4v-.561l1.962-.392.013,0Z" transform="translate(-384.83 -155.944)" fill="#1767b1"/>
      <path id="Tracé_16-3" data-name="Tracé 16" d="M393.311,203.66v.56l-.026.005-1.975.4v-.56l1.962-.393.013,0Z" transform="translate(-384.83 -200.287)" fill="#1767b1"/>
      <path id="Tracé_17-3" data-name="Tracé 17" d="M393.311,248.81v.56l-.026.005-1.975.4v-.56l1.962-.393.013,0Z" transform="translate(-384.83 -244.69)" fill="#1767b1"/>
      <path id="Tracé_18-3" data-name="Tracé 18" d="M393.311,293.95v.56l-.026.005-1.975.395v-.56l1.962-.392.013,0Z" transform="translate(-384.83 -289.082)" fill="#1767b1"/>
      <path id="Tracé_19-3" data-name="Tracé 19" d="M509.81,113.99l1.557.623v-.56l-1.557-.623Z" transform="translate(-501.368 -111.552)" fill="#1767b1"/>
      <path id="Tracé_20-3" data-name="Tracé 20" d="M509.81,159.11l1.557.623v-.56l-1.557-.623Z" transform="translate(-501.368 -155.924)" fill="#1767b1"/>
      <path id="Tracé_21-3" data-name="Tracé 21" d="M509.81,204.24l1.557.623v-.56l-1.557-.623Z" transform="translate(-501.368 -200.307)" fill="#1767b1"/>
      <path id="Tracé_22-3" data-name="Tracé 22" d="M509.81,249.36l1.557.623v-.561l-1.557-.623Z" transform="translate(-501.368 -244.68)" fill="#1767b1"/>
      <path id="Tracé_23-3" data-name="Tracé 23" d="M509.81,294.481l1.557.623v-.56l-1.557-.623Z" transform="translate(-501.368 -289.053)" fill="#1767b1"/>
    </g>
    <g id="KEI-4" data-name="KEI" transform="translate(39.29 77.386)">
      <path id="Tracé_1-4" data-name="Tracé 1" d="M198.369,611.93H200.9a.229.229,0,0,1,.229.229v1.648a.229.229,0,0,0,.422.124c.407-.633.822-1.273,1.242-1.9a.229.229,0,0,1,.191-.1h2.951a.229.229,0,0,1,.169.384l-2.1,2.246a.229.229,0,0,0-.023.284l2.387,3.582a.229.229,0,0,1-.191.356h-2.921a.229.229,0,0,1-.2-.121l-1.058-1.974a.229.229,0,0,0-.368-.05l-.43.453a.229.229,0,0,0-.063.158v1.305a.229.229,0,0,1-.229.229h-2.532a.229.229,0,0,1-.229-.229v-6.4A.229.229,0,0,1,198.369,611.93Z" transform="translate(-198.069 -596.528)" fill="#1767b1"/>
      <path id="Tracé_2-4" data-name="Tracé 2" d="M478.878,616.243h-3.016a.229.229,0,0,0-.229.229v.242a.229.229,0,0,0,.229.229h3.408a.229.229,0,0,1,.225.272l-.263,1.382a.229.229,0,0,1-.225.186h-6.047a.229.229,0,0,1-.229-.229v-6.4a.229.229,0,0,1,.229-.229h6.094a.229.229,0,0,1,.229.229v1.391a.229.229,0,0,1-.229.229h-3.193a.229.229,0,0,0-.229.229v.155a.229.229,0,0,0,.229.229h3.016a.229.229,0,0,1,.229.229v1.391A.229.229,0,0,1,478.878,616.243Z" transform="translate(-462.174 -596.528)" fill="#1767b1"/>
      <path id="Tracé_3-4" data-name="Tracé 3" d="M728.189,612.159v6.4a.229.229,0,0,1-.229.229h-2.541a.229.229,0,0,1-.229-.229v-6.4a.229.229,0,0,1,.229-.229h2.54a.229.229,0,0,1,.229.229Z" transform="translate(-704.995 -596.528)" fill="#1767b1"/>
      <path id="Tracé_4-4" data-name="Tracé 4" d="M10.045,1.808,0,3.817V2.009L10.045,0Z" fill="#1767b1"/>
      <path id="Tracé_5-4" data-name="Tracé 5" d="M10.045,64.948,0,66.957V65.149L10.045,63.14Z" transform="translate(0 -60.729)" fill="#1767b1"/>
      <path id="Tracé_6-4" data-name="Tracé 6" d="M10.045,128.088,0,130.1v-1.808l10.045-2.009Z" transform="translate(0 -121.458)" fill="#1767b1"/>
      <path id="Tracé_7-4" data-name="Tracé 7" d="M10.045,191.218,0,193.227v-1.808l10.045-2.009Z" transform="translate(0 -182.178)" fill="#1767b1"/>
      <path id="Tracé_8-4" data-name="Tracé 8" d="M10.045,254.358,0,256.367v-1.808l10.045-2.009Z" transform="translate(0 -242.907)" fill="#1767b1"/>
      <path id="Tracé_9-4" data-name="Tracé 9" d="M259.77,1.808l5.022,2.009V2.009L259.77,0Z" transform="translate(-249.852)" fill="#1767b1"/>
      <path id="Tracé_10-4" data-name="Tracé 10" d="M259.77,64.948l5.022,2.009V65.149L259.77,63.14Z" transform="translate(-249.852 -60.729)" fill="#1767b1"/>
      <path id="Tracé_11-4" data-name="Tracé 11" d="M259.77,128.088l5.022,2.009v-1.808l-5.022-2.009Z" transform="translate(-249.852 -121.458)" fill="#1767b1"/>
      <path id="Tracé_12-4" data-name="Tracé 12" d="M259.77,191.218l5.022,2.009v-1.808l-5.022-2.009Z" transform="translate(-249.852 -182.178)" fill="#1767b1"/>
      <path id="Tracé_13-4" data-name="Tracé 13" d="M259.77,254.358l5.022,2.009v-1.808l-5.022-2.009Z" transform="translate(-249.852 -242.907)" fill="#1767b1"/>
      <path id="Tracé_14-4" data-name="Tracé 14" d="M395.924,113.43v1.292l-.06.012-4.554.912v-1.292l4.524-.906.03-.006Z" transform="translate(-376.369 -109.099)" fill="#1767b1"/>
      <path id="Tracé_15-4" data-name="Tracé 15" d="M395.924,158.57v1.292l-.06.012-4.554.912v-1.294l4.524-.9.03-.006Z" transform="translate(-376.369 -152.516)" fill="#1767b1"/>
      <path id="Tracé_16-4" data-name="Tracé 16" d="M395.924,203.66v1.292l-.06.012-4.554.912v-1.292l4.524-.906.03-.006Z" transform="translate(-376.369 -195.884)" fill="#1767b1"/>
      <path id="Tracé_17-4" data-name="Tracé 17" d="M395.924,248.81V250.1l-.06.012-4.554.912v-1.292l4.524-.906.03-.006Z" transform="translate(-376.369 -239.31)" fill="#1767b1"/>
      <path id="Tracé_18-4" data-name="Tracé 18" d="M395.924,293.95v1.292l-.06.012-4.554.91v-1.292l4.524-.9.03-.006Z" transform="translate(-376.369 -282.726)" fill="#1767b1"/>
      <path id="Tracé_19-4" data-name="Tracé 19" d="M509.81,114.722l3.589,1.436v-1.292l-3.589-1.436Z" transform="translate(-490.345 -109.099)" fill="#1767b1"/>
      <path id="Tracé_20-4" data-name="Tracé 20" d="M509.81,159.842l3.589,1.436v-1.292l-3.589-1.436Z" transform="translate(-490.345 -152.496)" fill="#1767b1"/>
      <path id="Tracé_21-4" data-name="Tracé 21" d="M509.81,204.972l3.589,1.436v-1.292l-3.589-1.436Z" transform="translate(-490.345 -195.903)" fill="#1767b1"/>
      <path id="Tracé_22-4" data-name="Tracé 22" d="M509.81,250.092l3.589,1.436v-1.292L509.81,248.8Z" transform="translate(-490.345 -239.3)" fill="#1767b1"/>
      <path id="Tracé_23-4" data-name="Tracé 23" d="M509.81,295.213l3.589,1.436v-1.292l-3.589-1.436Z" transform="translate(-490.345 -282.698)" fill="#1767b1"/>
    </g>
  </g>
</svg>
