<?xml version="1.0" encoding="utf-8"?>
<!-- Generator: Adobe Illustrator 27.5.0, SVG Export Plug-In . SVG Version: 6.00 Build 0)  -->
<svg version="1.1" xmlns="http://www.w3.org/2000/svg" xmlns:xlink="http://www.w3.org/1999/xlink" x="0px" y="0px"
	 viewBox="0 0 3710 3710" style="enable-background:new 0 0 3710 3710;" xml:space="preserve">
<g id="Background">
	<g>
		<g>
			<rect style="fill:#FFFFFF;" width="3710" height="3710"/>
		</g>
	</g>
</g>
<g id="Illustration">
	<g>
		<linearGradient id="SVGID_1_" gradientUnits="userSpaceOnUse" x1="3360.9473" y1="3588.8721" x2="1386.8694" y2="1458.1212">
			<stop  offset="0" style="stop-color:#DAE3FE"/>
			<stop  offset="1" style="stop-color:#E9EFFD"/>
		</linearGradient>
		<path style="fill:url(#SVGID_1_);" d="M3085.847,2374.637c-271.253,634.021-987.272,906.349-1548.285,859.916
			c-153.179-12.678-461.379-38.186-702.024-265.756c-462.142-437.034-390.968-1350.557,51.435-1888.388
			c56.972-69.261,451.326-533.307,1065.854-527.096c449.923,4.548,765.72,258.704,804.12,290.367
			c48.509,39.999,155.5,135.049,251.926,285.839C3235.437,1483.824,3255.352,1978.437,3085.847,2374.637z"/>
		<g>
			<path style="fill:#BDD0FB;" d="M478.866,752.013c-3.343-4.991,2.341-11.064,7.508-8
				c82.469,48.91,373.453,246.016,477.446,644.927c95.148,364.985,102.113,636.642,100.624,737.801
				c-0.295,20.004-22.012,32.305-39.306,22.248c-102.505-59.609-380.792-241.535-422.733-481.083
				C552.285,1381.644,638.389,990.199,478.866,752.013z"/>
			<path style="opacity:0.5;fill:#FFFFFF;" d="M664.989,1018.715c0,0,233.854,235.224,375.659,1100.378
				C1040.648,2119.093,852.077,1257.175,664.989,1018.715z"/>
		</g>
		<g>
			<path style="fill:#91B3FA;" d="M469.109,1532.682c-17.784,174.074-79.911,1191.312,864.178,1421.073
				c0,0,213.293-659.157-840.725-1431.547C483.341,1515.45,470.271,1521.309,469.109,1532.682z"/>
			<path style="opacity:0.5;fill:#FFFFFF;" d="M565.32,1681.998c15.052,55.416,32.346,110.393,50.448,164.985
				c18.213,54.582,37.654,108.751,58.19,162.491c20.499,53.756,42.344,106.99,65.343,159.701
				c23.09,52.666,47.064,104.956,72.957,156.28c51.443,102.78,108.616,202.769,173.939,297.122
				c7.894,11.983,16.673,23.33,24.992,35.005l12.635,17.399c4.205,5.804,8.749,11.347,13.105,17.034
				c8.858,11.26,17.477,22.714,26.525,33.812l27.603,32.908c37.559,43.196,77.49,84.263,120.332,122.013l0.095,0.085
				c3.933,3.465,4.313,9.461,0.847,13.394c-3.465,3.933-9.462,4.312-13.395,0.847l-0.056-0.048
				c-43.337-38.792-83.525-80.8-121.209-124.842l-27.666-33.521c-9.06-11.297-17.679-22.936-26.539-34.384
				c-4.356-5.78-8.901-11.423-13.101-17.314l-12.617-17.661c-8.302-11.848-17.071-23.377-24.935-35.518
				c-65.121-95.675-121.804-196.691-172.662-300.336c-25.6-51.758-49.249-104.436-71.999-157.464
				c-22.659-53.071-44.145-106.636-64.274-160.699c-20.164-54.05-39.222-108.505-57.046-163.362
				c-17.724-54.906-34.589-110.02-49.299-165.921c-0.566-2.146,0.717-4.346,2.864-4.91c2.137-0.563,4.324,0.704,4.901,2.833
				L565.32,1681.998z"/>
		</g>
		<g>
			<path style="fill:#91B3FA;" d="M1047.939,482.187c-81.202,201.225-505.928,1391.539,539.453,1990.731
				c0,0,481.337-711.648-507.905-1995.122C1070.833,466.567,1053.244,469.04,1047.939,482.187z"/>
			<path style="opacity:0.5;fill:#FFFFFF;" d="M1108.522,698.339c-2.13,72.804-1.222,145.816,1.129,218.68
				c2.413,72.885,6.587,145.71,12.568,218.38c12.018,145.318,30.911,290.135,59.233,433.115
				c28.465,142.871,66.173,284.173,118.815,419.901c13.046,33.962,27.382,67.406,42.553,100.44
				c15.128,33.059,31.52,65.524,49.121,97.295c34.947,63.682,75.394,124.312,121.412,180.318l0.038,0.047
				c2.397,2.916,1.975,7.224-0.942,9.62c-2.917,2.396-7.224,1.975-9.621-0.941l-0.019-0.025
				c-46.402-56.989-87.008-118.491-121.986-182.909c-17.618-32.143-33.996-64.95-49.087-98.321
				c-15.135-33.348-29.414-67.083-42.385-101.309c-52.345-136.791-89.54-278.812-117.449-422.242
				c-27.76-143.538-46.035-288.743-57.42-434.371c-5.664-72.825-9.517-145.783-11.604-218.79
				c-2.025-73.016-2.61-146.037-0.143-219.129c0.054-1.598,1.393-2.85,2.991-2.796c1.598,0.054,2.85,1.394,2.796,2.992
				L1108.522,698.339z"/>
		</g>
		<g>
			
				<linearGradient id="SVGID_00000086689045974360766060000004666651148664001981_" gradientUnits="userSpaceOnUse" x1="1666.5261" y1="-117.633" x2="1727.2333" y2="524.8568">
				<stop  offset="0" style="stop-color:#4F52FF"/>
				<stop  offset="1" style="stop-color:#4042E2"/>
			</linearGradient>
			<path style="fill:url(#SVGID_00000086689045974360766060000004666651148664001981_);" d="M1410.138,733.979
				c24.058-32.36,96.026-33.868,152.764-76.164c4.216-3.143,8.767-5.825,13.523-8.068c101.46-47.869,204.166-31.905,279.759,15.383
				c0.242,0.151,0.477,0.321,0.699,0.5c56.444,45.796,125.522-21.434,223.262,38.827c2.162,1.333,4.033,2.903,2.624,5.016
				c-57.018,85.518-139.582,180.508-286.931,256.888c-2.19,1.135-4.825,1.062-6.951-0.189l-376.651-221.704
				C1408.548,742.298,1407.586,737.411,1410.138,733.979z"/>
			
				<linearGradient id="SVGID_00000177471811684122718040000010307979856213130159_" gradientUnits="userSpaceOnUse" x1="3067.136" y1="877.7591" x2="519.7983" y2="4237.6108" gradientTransform="matrix(0.9357 -0.3057 0.2857 0.8747 -602.5661 861.495)">
				<stop  offset="0" style="stop-color:#4F52FF"/>
				<stop  offset="1" style="stop-color:#4042E2"/>
			</linearGradient>
			<path style="fill:url(#SVGID_00000177471811684122718040000010307979856213130159_);" d="M1589.233,1053.254
				c-444.04,243.191-792.867,1111.329-725.833,1827.551c-63.332,403.73,2322.764,608.505,1897.82-519.151
				c-213.156-474.137-433.739-1055.814-874.341-1309.285L1589.233,1053.254z"/>
			
				<linearGradient id="SVGID_00000123439175112549840280000017676348562348128947_" gradientUnits="userSpaceOnUse" x1="2439.5623" y1="575.1099" x2="1827.8387" y2="1381.9523" gradientTransform="matrix(0.9506 -0.3105 0.2312 0.7079 -612.661 895.7326)">
				<stop  offset="0" style="stop-color:#4F52FF"/>
				<stop  offset="1" style="stop-color:#4042E2"/>
			</linearGradient>
			<path style="fill:url(#SVGID_00000123439175112549840280000017676348562348128947_);" d="M1571.924,1044.42
				c-52.244-110.134-97.214-197.699-163.887-300.013c-0.725-1.292,0.5-2.781,1.916-2.343c67.789,20.951,138.1,8.423,248.374-22.719
				c0.153-0.043,0.302-0.111,0.436-0.197c62.36-40.175,133.628-26.534,207.887,5.172c0.105,0.045,0.217,0.079,0.329,0.102
				c80.163,15.994,107.432,29.727,214.257-17.682c1.445-0.641,2.857,0.958,2.031,2.305
				c-81.024,100.496-147.68,209.577-200.626,326.852c-0.314,0.451-0.254,0.998-0.162,1.54
				C1892.136,1094.7,1578.72,1107.027,1571.924,1044.42z"/>
			<g>
				
					<linearGradient id="SVGID_00000023968332118227843310000009998857700381645207_" gradientUnits="userSpaceOnUse" x1="2098.8843" y1="1439.3497" x2="405.1438" y2="4282.8599" gradientTransform="matrix(0.9949 0.1009 -0.1009 0.9949 380.7885 -300.273)">
					<stop  offset="0" style="stop-color:#FF928E"/>
					<stop  offset="1" style="stop-color:#FE7062"/>
				</linearGradient>
				<path style="fill:url(#SVGID_00000023968332118227843310000009998857700381645207_);" d="M1724.344,2560.208l-2.571-73.964
					c-77.214-0.407-154.115-15.956-209.109-37.786c-19.637-7.793-30.252-29.159-25.405-49.724l16.398-69.55
					c6.014-25.513,33.047-39.543,57.562-30.257c54.517,20.659,121.484,36.176,193.026,33.689
					c74.267-2.582,128.779-29.688,126.985-81.297c-1.619-46.576-45.379-72.777-149.561-96.878
					c-148.677-35.165-256.652-95.69-261.158-225.346c-4.069-117.073,78.426-209.419,226.13-238.495l-2.571-73.976
					c-0.827-23.801,17.798-43.768,41.6-44.596l43.459-1.511c23.801-0.827,43.769,17.799,44.597,41.6l2.309,66.417
					c71.449,0.376,123.81,10.771,165.531,23.824c21.375,6.683,33.707,29.031,28.599,50.84l-15.068,64.318
					c-5.808,24.805-31.601,39.175-55.725,30.998c-38.449-13.031-92.621-26.107-162.364-23.682
					c-88.117,3.063-112.02,40.436-110.882,73.168c1.4,40.281,55.23,66.135,171.002,97.406
					c165.353,43.4,235.69,109.012,239.934,231.114c3.894,112.034-75.685,215.628-235.934,246.406l2.877,82.776
					c0.828,23.804-17.799,43.771-41.599,44.598l-43.465,1.511C1745.138,2602.637,1725.171,2584.012,1724.344,2560.208z"/>
			</g>
			
				<linearGradient id="SVGID_00000102525770430116077800000008440534182841696182_" gradientUnits="userSpaceOnUse" x1="1754.6403" y1="903.2358" x2="1525.4205" y2="2082.6782">
				<stop  offset="0" style="stop-color:#FF928E"/>
				<stop  offset="1" style="stop-color:#FE7062"/>
			</linearGradient>
			<path style="fill:url(#SVGID_00000102525770430116077800000008440534182841696182_);" d="M1715.355,1117.939
				c-38.688,0-108.208-3.58-149.198-26.952c-31.092-17.73-32.091-39.992-29.918-51.685c1.609-8.657,10.903-14.527,20.755-13.116
				c9.854,1.413,16.538,9.577,14.929,18.235c-0.602,3.243-2.014,10.836,13.917,19.921c25.884,14.759,80.319,23.07,142.082,21.695
				c60.177-1.343,115.711-11.819,141.478-26.69c9.232-5.329,13.473-10.321,12.604-14.839c-1.663-8.649,4.97-16.846,14.814-18.306
				c9.836-1.457,19.174,4.366,20.837,13.015c1.958,10.181,0.871,29.783-28.403,46.679c-31.959,18.445-91.927,30.369-160.414,31.896
				C1724.965,1117.877,1720.422,1117.939,1715.355,1117.939z"/>
		</g>
		<g>
			<g>
				
					<linearGradient id="SVGID_00000008148506447672833680000002300482533168638092_" gradientUnits="userSpaceOnUse" x1="4144.9702" y1="2651.0906" x2="4282.6431" y2="2964.3267" gradientTransform="matrix(1 0.0068 -0.0068 1 -1420.0854 -442.194)">
					<stop  offset="0" style="stop-color:#FEBBBA"/>
					<stop  offset="1" style="stop-color:#FF928E"/>
				</linearGradient>
				<path style="fill:url(#SVGID_00000008148506447672833680000002300482533168638092_);" d="M2630.624,2144.059
					c0,0,108.594,202.707,213.335,252.506c0,0-18.8,51.328-39.839,55.171c0,0-122.056-37.115-185.363-284.951L2630.624,2144.059z"/>
				<g>
					
						<linearGradient id="SVGID_00000079481353321760310980000009161526585606127495_" gradientUnits="userSpaceOnUse" x1="4112.292" y1="2667.999" x2="4206.7515" y2="2882.916" gradientTransform="matrix(1 0.0068 -0.0068 1 -1420.0854 -442.194)">
						<stop  offset="0" style="stop-color:#FEBBBA"/>
						<stop  offset="1" style="stop-color:#FF928E"/>
					</linearGradient>
					<path style="fill:url(#SVGID_00000079481353321760310980000009161526585606127495_);" d="M2641.283,2201.367
						c-1.107,3.436,11.401,8.764,18.882-5.269c0.304-6.748,4.605-35.637,0.609-41.163c-21.282-29.433-43.954-31.483-43.954-31.483
						c-4.278,7.608-9.476,14.019-11.954,23.24c-1.877,6.982-0.809,14.466,2.682,20.856c3.503,6.413,8.285,14.751,12.815,21.282
						C2628.938,2201.191,2641.283,2201.367,2641.283,2201.367z"/>
				</g>
				
					<linearGradient id="SVGID_00000005985036120561481360000011978287780759333298_" gradientUnits="userSpaceOnUse" x1="4383.0044" y1="339.9872" x2="4483.7148" y2="339.9872" gradientTransform="matrix(0.4933 0.8699 0.8699 -0.4933 708.4889 -718.3337)">
					<stop  offset="0" style="stop-color:#09005D"/>
					<stop  offset="1" style="stop-color:#1A0F91"/>
				</linearGradient>
				<path style="fill-rule:evenodd;clip-rule:evenodd;fill:url(#SVGID_00000005985036120561481360000011978287780759333298_);" d="
					M3154.401,2937.777c5.956-5.345,15.366-13.191,24.085-17.899c2.222-1.2,4.959-0.628,6.502,1.369
					c9.064,11.734,39.321,52.368,46.079,80.332c0.56,2.319-0.624,4.693-2.74,5.796c-7.799,4.066-28.375,8.458-57.708-32.353
					l-17.629-24.903C3150.247,2946.245,3150.868,2940.947,3154.401,2937.777z"/>
				
					<linearGradient id="SVGID_00000169552121071560155230000017390601621108325538_" gradientUnits="userSpaceOnUse" x1="-1461.3878" y1="2607.5156" x2="-1467.4158" y2="3213.3208" gradientTransform="matrix(-1 0 0 1 1614.4521 0)">
					<stop  offset="0" style="stop-color:#FEBBBA"/>
					<stop  offset="1" style="stop-color:#FF928E"/>
				</linearGradient>
				<path style="fill-rule:evenodd;clip-rule:evenodd;fill:url(#SVGID_00000169552121071560155230000017390601621108325538_);" d="
					M2975.6,2846.55c0,0,9.858,133.086,64.078,177.448c47.471,38.839,121.391-31.893,139.058-50.104
					c2.575-2.655,3.813-6.417,3.08-10.043c-1.77-8.748-6.018-15.543-13.47-19.81c-5.242-3.002-11.836-2.315-16.273,1.785
					c-14.72,13.604-53.276,46.614-72.962,38.74c-24.646-9.859-39.433-138.016-39.433-138.016H2975.6z"/>
				<g>
					
						<linearGradient id="SVGID_00000106110434550308210160000015950845393050965408_" gradientUnits="userSpaceOnUse" x1="3262.333" y1="2154.2021" x2="3036.3345" y2="2521.7068">
						<stop  offset="0" style="stop-color:#FEBBBA"/>
						<stop  offset="1" style="stop-color:#FF928E"/>
					</linearGradient>
					<path style="fill-rule:evenodd;clip-rule:evenodd;fill:url(#SVGID_00000106110434550308210160000015950845393050965408_);" d="
						M3103.757,2442.362c0,0,73.936-34.503,114.559-223.64l-20.218-10.362c0,0-78.485,154.447-118.987,189.64
						C3038.608,2433.194,3103.757,2442.362,3103.757,2442.362z"/>
					
						<linearGradient id="SVGID_00000018922720924781346660000011398501380517212817_" gradientUnits="userSpaceOnUse" x1="3243.9592" y1="2142.9033" x2="3017.9604" y2="2510.4087">
						<stop  offset="0" style="stop-color:#FEBBBA"/>
						<stop  offset="1" style="stop-color:#FF928E"/>
					</linearGradient>
					<path style="fill-rule:evenodd;clip-rule:evenodd;fill:url(#SVGID_00000018922720924781346660000011398501380517212817_);" d="
						M3202.673,2231.127l15.642-12.405c0,0,21.34-20.719,28.832-38.323c7.491-17.605-14.501-33.472-22.795-37.212
						c-8.294-3.74-12.844,4.139-11.191,21.835c0,0-18.897,21.971-16.176,53.999L3202.673,2231.127z"/>
				</g>
				
					<linearGradient id="SVGID_00000036215592692933577920000003384454755514441091_" gradientUnits="userSpaceOnUse" x1="-1352.5039" y1="3202.0823" x2="-1251.7855" y2="3202.0823" gradientTransform="matrix(-1 -0.0047 -0.0047 1 1617.9052 4.0466)">
					<stop  offset="0" style="stop-color:#09005D"/>
					<stop  offset="1" style="stop-color:#1A0F91"/>
				</linearGradient>
				<path style="fill-rule:evenodd;clip-rule:evenodd;fill:url(#SVGID_00000036215592692933577920000003384454755514441091_);" d="
					M2949.81,3188.844c0,0,5.873,21.808,5.469,37.915c-0.064,2.53-1.941,4.636-4.448,4.981c-14.721,2.03-64.975,8.054-92.581,0.014
					c-2.224-0.648-3.744-2.72-3.677-5.035c0.251-8.666,6.351-29.004,56.779-34.197L2949.81,3188.844z"/>
				
					<linearGradient id="SVGID_00000136396916074235431100000002369091428149828762_" gradientUnits="userSpaceOnUse" x1="-1073.403" y1="2928.8831" x2="-1079.431" y2="3534.6882" gradientTransform="matrix(-0.9977 0.0685 0.0685 0.9977 1622.6279 -47.5666)">
					<stop  offset="0" style="stop-color:#FEBBBA"/>
					<stop  offset="1" style="stop-color:#FF928E"/>
				</linearGradient>
				<path style="fill-rule:evenodd;clip-rule:evenodd;fill:url(#SVGID_00000136396916074235431100000002369091428149828762_);" d="
					M2863.044,2855.278c-6.206,4.052,40.612,332.815,51.955,335.204c0,0,12.974,12.058,32.996-1.685
					c-11.559-107.15-18.595-215.83-12.374-326.902L2863.044,2855.278z"/>
				
					<linearGradient id="SVGID_00000164514099328870067830000015015984996169928069_" gradientUnits="userSpaceOnUse" x1="-1229.4104" y1="2904.5652" x2="-1025.3179" y2="2904.5652" gradientTransform="matrix(-0.9977 0.0685 0.0685 0.9977 1622.6279 -47.5666)">
					<stop  offset="0" style="stop-color:#09005D"/>
					<stop  offset="1" style="stop-color:#1A0F91"/>
				</linearGradient>
				<path style="fill-rule:evenodd;clip-rule:evenodd;fill:url(#SVGID_00000164514099328870067830000015015984996169928069_);" d="
					M3027.25,2655.74c0,0-152.681,6.984-189.045,19.751c0,0,4.481,124.134,19.408,200.414c0.579,2.959,2.816,5.302,5.752,5.983
					c9.797,2.272,34.458,5.519,73.546-5.426c3.474-0.973,5.786-4.273,5.539-7.873l-4.034-49.445
					c-0.228-3.319,2.278-6.195,5.598-6.423l4.089-0.619c3.46-0.237,6.405,2.489,6.437,5.956l7.719,50.145
					c0.029,3.247,2.1,6.116,5.176,7.158c11.476,3.888,41.342,11.144,80.725-0.855c3.173-0.967,5.375-3.894,5.397-7.211
					C3053.956,2806.43,3043.024,2733.634,3027.25,2655.74z"/>
				
					<linearGradient id="SVGID_00000090996211110528245870000011261200373395550087_" gradientUnits="userSpaceOnUse" x1="-1231.5468" y1="2772.8672" x2="-1174.9818" y2="2850.0012" gradientTransform="matrix(-0.9977 0.0685 0.0685 0.9977 1622.6279 -47.5666)">
					<stop  offset="0" style="stop-color:#09005D"/>
					<stop  offset="1" style="stop-color:#1A0F91"/>
				</linearGradient>
				<path style="fill-rule:evenodd;clip-rule:evenodd;fill:url(#SVGID_00000090996211110528245870000011261200373395550087_);" d="
					M2970.017,2666.444c0,0,19.299,53.659,65.873,57.378l-10.297-61.192C3025.593,2662.629,2989.52,2662.361,2970.017,2666.444z"/>
				
					<linearGradient id="SVGID_00000103947609922968941010000003520387899880408734_" gradientUnits="userSpaceOnUse" x1="3134.2256" y1="1513.4056" x2="3002.6931" y2="2095.1865">
					<stop  offset="0" style="stop-color:#FF928E"/>
					<stop  offset="1" style="stop-color:#FE7062"/>
				</linearGradient>
				<path style="fill-rule:evenodd;clip-rule:evenodd;fill:url(#SVGID_00000103947609922968941010000003520387899880408734_);" d="
					M3098.827,2373.354c0,0-69.008,44.362-152.802,39.433c-69.884-4.111-112.341-21.936-135.948-42.036
					c-8.444-7.189-20.447-8.362-29.772-2.362c-10.201,6.564-23.784,16.777-38.058,31.688c-3.585,3.744-4.314,9.477-1.585,13.884
					c20.357,32.882,42.06,55.874,65.071,69.244c7.789,8.584,11.967,19.843,11.662,31.431l-4.251,161.527
					c-0.117,4.478,2.993,8.377,7.394,9.212c30.631,5.813,146.881,26.051,219.142,13.299V2524.46
					c0-12.951,7.162-24.732,18.486-31.019c15.177-8.426,37.779-24.93,60.38-56.007L3098.827,2373.354z"/>
				
					<linearGradient id="SVGID_00000101073318298440618770000012820957833079037836_" gradientUnits="userSpaceOnUse" x1="-1978.835" y1="1581.6343" x2="-2008.5343" y2="1344.0382" gradientTransform="matrix(-0.9402 -0.3405 -0.3405 0.9402 1474.4176 218.113)">
					<stop  offset="0" style="stop-color:#FEBBBA"/>
					<stop  offset="1" style="stop-color:#FF928E"/>
				</linearGradient>
				<path style="fill-rule:evenodd;clip-rule:evenodd;fill:url(#SVGID_00000101073318298440618770000012820957833079037836_);" d="
					M2842.823,2309.6c0,0,5.877-16.577-9.1-19.531c-14.977-2.954-0.689,41.063-0.689,41.063L2842.823,2309.6z"/>
				
					<linearGradient id="SVGID_00000106141685484535880800000002155377587074326954_" gradientUnits="userSpaceOnUse" x1="-1423.303" y1="2378.1309" x2="-1173.1448" y2="2417.3123" gradientTransform="matrix(-1 0 0 1 1614.4521 0)">
					<stop  offset="0" style="stop-color:#F9B776"/>
					<stop  offset="0.7143" style="stop-color:#F47960"/>
				</linearGradient>
				<path style="fill-rule:evenodd;clip-rule:evenodd;fill:url(#SVGID_00000106141685484535880800000002155377587074326954_);" d="
					M2962.566,2354.581l5.916,64.964c0,0-34.289,20.035-63.788,2.52l5.24-56.742L2962.566,2354.581z"/>
				
					<linearGradient id="SVGID_00000178202143678676113120000013142556741714684809_" gradientUnits="userSpaceOnUse" x1="-2127.1389" y1="1171.5405" x2="-2203.1704" y2="1026.2523" gradientTransform="matrix(-0.9011 -0.4336 -0.4336 0.9011 1468.2039 336.2941)">
					<stop  offset="0" style="stop-color:#09005D"/>
					<stop  offset="1" style="stop-color:#1A0F91"/>
				</linearGradient>
				<path style="fill-rule:evenodd;clip-rule:evenodd;fill:url(#SVGID_00000178202143678676113120000013142556741714684809_);" d="
					M2835.212,2309.443c-6.845-4.532-12.507-9.751-15.936-15.975c-5.36-9.73-10.835-21.317-6.285-31.45
					c3.051-6.796,10.343-11.975,10.365-19.424c0.016-5.481-4.037-10.098-5.391-15.409c-2.136-8.38,3.006-17.299,10.234-22.046
					c7.229-4.747,16.103-6.156,24.711-6.99c4.004-0.388,8.173-0.723,11.646-2.753c4.044-2.363,6.505-6.634,9.616-10.135
					c12.215-13.745,36.72-13.568,48.735,0.352c6.195,7.177,9.558,17.322,18.007,21.623c4.643,2.364,10.052,2.498,15.158,3.532
					c11.756,2.382,21.996,9.621,30.602,17.978c12.875,12.502,23.164,25.538,26.5,43.499c1.77,9.526,1.773,19.281,1.771,28.97
					c-0.002,12.321-0.118,25.148-5.587,36.189c-5.395,10.891-15.539,19.009-20.188,30.238c-1.511,3.65-2.42,7.587-4.534,10.924
					c-2.114,3.337-5.925,6.049-9.806,5.312c-4.66-0.885-7.023-5.918-9.522-9.95c-12.383-19.978-53.675-29.123-74.322-39.051
					C2875.463,2327.414,2851.845,2320.456,2835.212,2309.443z"/>
				
					<linearGradient id="SVGID_00000037683991470588820950000007771910334105476000_" gradientUnits="userSpaceOnUse" x1="-2053.7878" y1="1570.0746" x2="-2077.3586" y2="1381.506" gradientTransform="matrix(-0.9402 -0.3405 -0.3405 0.9402 1474.4176 218.113)">
					<stop  offset="0" style="stop-color:#FEBBBA"/>
					<stop  offset="1" style="stop-color:#FF928E"/>
				</linearGradient>
				<path style="fill-rule:evenodd;clip-rule:evenodd;fill:url(#SVGID_00000037683991470588820950000007771910334105476000_);" d="
					M2863.685,2254.578c0,0-71.527,107.777,2.375,140.79c69.747,31.158,99.136-40.41,99.136-40.41s30.67-31.776,20.368-56.241
					C2975.262,2274.252,2881.119,2241.186,2863.685,2254.578z"/>
				
					<linearGradient id="SVGID_00000058582765742338488300000013334680255272173484_" gradientUnits="userSpaceOnUse" x1="-2047.8093" y1="1483.0773" x2="-2116.9434" y2="1350.9696" gradientTransform="matrix(-0.9402 -0.3405 -0.3405 0.9402 1474.4176 218.113)">
					<stop  offset="0" style="stop-color:#09005D"/>
					<stop  offset="1" style="stop-color:#1A0F91"/>
				</linearGradient>
				<path style="fill-rule:evenodd;clip-rule:evenodd;fill:url(#SVGID_00000058582765742338488300000013334680255272173484_);" d="
					M2972.637,2333.122c-4.002-0.874-7.942-3.457-11.372-8.296c-5.082-7.168-6.143-16.373-9.67-24.421
					c-5.666-12.928-17.881-22.473-31.507-26.155c-12.328-3.332-25.347-2.181-38.114-2.456
					c-17.382-0.375-56.594-12.978-24.773-30.047c22.893-12.281,49.19-0.759,71.88,5.543c21.701,6.027,46.887,18.366,61.098,36.655
					c6.125,7.882,9.803,18.826,7.66,28.79C2995.22,2324.909,2983.689,2335.534,2972.637,2333.122z"/>
				
					<linearGradient id="SVGID_00000170976818710463884440000013142082034655732411_" gradientUnits="userSpaceOnUse" x1="-2123.4424" y1="1576.483" x2="-2146.6416" y2="1390.8895" gradientTransform="matrix(-0.9402 -0.3405 -0.3405 0.9402 1474.4176 218.113)">
					<stop  offset="0" style="stop-color:#FEBBBA"/>
					<stop  offset="1" style="stop-color:#FF928E"/>
				</linearGradient>
				<path style="fill-rule:evenodd;clip-rule:evenodd;fill:url(#SVGID_00000170976818710463884440000013142082034655732411_);" d="
					M2956.016,2364.579l12.436-34.186c0,0,24.029-11.042,20.865,7.556C2986.152,2356.548,2964.559,2366.821,2956.016,2364.579z"/>
			</g>
			<g>
				
					<linearGradient id="SVGID_00000047761330199941622610000013312313929768480395_" gradientUnits="userSpaceOnUse" x1="2296.6936" y1="1254.9464" x2="3251.2661" y2="2298.8171">
					<stop  offset="0" style="stop-color:#09005D"/>
					<stop  offset="1" style="stop-color:#1A0F91"/>
				</linearGradient>
				<path style="fill:url(#SVGID_00000047761330199941622610000013312313929768480395_);" d="M2282.957,1562.604
					c15.675-25.884,43.019-42.883,59.512-68.253c20.775-31.958,21.486-74.276,7.875-109.88
					c-11.293-29.541-31.41-55.048-42.927-84.503c-15.501-39.644-15.792-56.696-8.729-96.494
					c6.22-35.055,19.841-72.391,53.491-92.495c41.621-24.867,92.532-29.585,140.174-20.584
					c49.451,9.342,97.394,30.339,133.571,65.323c36.177,34.984,59.76,84.069,59.159,134.392
					c-0.406,34.046-11.362,69.141-0.451,101.393c8.484,25.08,30.54,45.097,56.323,51.117c28.656,6.69,58.437-3.104,87.861-2.721
					c29.164,0.381,58.084,11.193,80.344,30.039c19.717,16.695,34.329,40.11,37.654,65.731c3.325,25.622-5.597,53.185-25.293,69.906
					c-13.468,11.436-32.421,19.178-37.393,36.132c-5.563,18.969,10.764,38.027,28.969,45.73
					c18.206,7.703,38.691,8.363,57.219,15.259c41.45,15.427,66.563,62.141,63.325,106.25
					c-3.238,44.109-31.142,84.035-67.739,108.869c-36.597,24.834-81.015,35.984-125.096,39.578
					c-44.081,3.592-88.383,0.08-132.562-2.002c-50.532-2.382-102.068-3.047-149.989-19.257
					c-48.459-16.393-90.331-47.754-129.372-80.812c-18.486-15.651-37.233-32.774-45.531-55.531
					c-6.025-16.523-6.053-34.879-12.98-51.044c-14.865-34.689-56.083-49.435-79.923-78.693
					C2266.278,1640.391,2263.136,1595.333,2282.957,1562.604z"/>
				<path style="fill:#BDD0FB;" d="M2831.198,1624.944c0.093,0,0.185-0.006,0.28-0.024c20.898-3.848,39.318-19.153,46.927-38.987
					c7.608-19.845,4.148-43.538-8.819-60.371c-19.258-24.999-53.166-31.471-86.247-35.957l-59.945-8.13
					c-33.831-4.587-68.487-11.154-87.942-36.153c-20.752-26.669-16.609-63.098-12.606-98.332c0.459-4.033,0.913-8.035,1.324-11.984
					c5.243-50.332-0.024-94.091-15.658-130.054c-19.076-43.878-54.636-76.161-95.121-86.349c-0.829-0.227-1.646,0.286-1.855,1.11
					c-0.206,0.817,0.293,1.646,1.11,1.849c39.574,9.962,74.362,41.588,93.062,84.607c15.422,35.48,20.612,78.72,15.425,128.515
					c-0.412,3.943-0.865,7.939-1.321,11.96c-4.074,35.844-8.286,72.904,13.23,100.551c20.162,25.912,55.486,32.641,89.94,37.311
					l59.945,8.13c32.452,4.396,65.689,10.707,84.237,34.788c12.332,16.01,15.625,38.545,8.39,57.413
					c-7.235,18.867-24.754,33.422-44.63,37.078c-0.829,0.155-1.378,0.949-1.226,1.778
					C2829.835,1624.431,2830.476,1624.944,2831.198,1624.944z"/>
				<path style="fill:#BDD0FB;" d="M2812.289,1606.542c0.749,0,1.5-0.274,2.088-0.823c7.328-6.866,15.634-14.65,20.561-24.516
					c4.477-8.959,6.711-22.255-0.453-32.724c-4.668-6.818-12.294-10.725-19.839-13.935c-18.31-7.79-37.55-13.368-57.192-16.565
					c-12.783-2.088-25.864-3.173-38.516-4.229c-16.335-1.36-33.225-2.768-49.387-6.335c-19.327-4.265-54.004-15.956-69.09-46.312
					c-12.192-24.534-7.665-51.895-2.872-80.861c3.886-23.484,7.904-47.773,2.395-70.852c-0.394-1.641-2.046-2.661-3.68-2.261
					c-1.641,0.393-2.652,2.04-2.261,3.68c5.222,21.879,1.306,45.548-2.481,68.436c-4.739,28.65-9.639,58.271,3.43,84.577
					c16.219,32.635,52.85,45.053,73.241,49.557c16.565,3.656,33.664,5.082,50.198,6.46c12.535,1.044,25.494,2.123,38.038,4.163
					c19.16,3.125,37.928,8.56,55.785,16.159c6.236,2.655,13.221,5.971,17.191,11.763c4.671,6.824,4.683,17.245,0.03,26.544
					c-4.438,8.888-11.98,15.956-19.273,22.786c-1.231,1.157-1.294,3.089-0.14,4.318
					C2810.66,1606.22,2811.474,1606.542,2812.289,1606.542z"/>
				
					<linearGradient id="SVGID_00000055698310738647339440000016635302984578829731_" gradientUnits="userSpaceOnUse" x1="3271.5852" y1="125.8889" x2="2775.8044" y2="1066.8615">
					<stop  offset="0" style="stop-color:#FF928E"/>
					<stop  offset="1" style="stop-color:#FE7062"/>
				</linearGradient>
				<path style="fill:url(#SVGID_00000055698310738647339440000016635302984578829731_);" d="M2326.624,1503.584
					c28.542-9.06,111.793-26.28,192.405,45.741c13.671,12.216,19.481,31.017,14.961,48.784
					c-20.069,78.888-72.62,311.846-21.648,411.456c0,0-85.431,97.28-181.563,21.532c0,0-45.563-184.865-102.637-265.424
					c-39.405-55.616,57.986-212.167,82.656-250.007C2314.533,1509.938,2320.106,1505.653,2326.624,1503.584z"/>
				
					<linearGradient id="SVGID_00000039133137123750970510000016845427472837985209_" gradientUnits="userSpaceOnUse" x1="-7254.4185" y1="2932.8601" x2="-7231.4604" y2="2769.8582" gradientTransform="matrix(0.9646 0.2639 -0.2639 0.9646 10111.1621 665.1306)">
					<stop  offset="0" style="stop-color:#FEBBBA"/>
					<stop  offset="1" style="stop-color:#FF928E"/>
				</linearGradient>
				<path style="fill:url(#SVGID_00000039133137123750970510000016845427472837985209_);" d="M2403.299,1346.264
					c0,0,44.349,119.294,48.392,172.172c0,0-46.536,22.072-91.288-13.196c0,0-6.565-119.762-13.608-141.113L2403.299,1346.264z"/>
				
					<linearGradient id="SVGID_00000074409307833733950300000012497971080326969222_" gradientUnits="userSpaceOnUse" x1="-7359.6704" y1="2583.5933" x2="-7145.0078" y2="2830.3977" gradientTransform="matrix(0.9646 0.2639 -0.2639 0.9646 10111.1621 665.1306)">
					<stop  offset="0" style="stop-color:#FEBBBA"/>
					<stop  offset="1" style="stop-color:#FF928E"/>
				</linearGradient>
				<path style="fill:url(#SVGID_00000074409307833733950300000012497971080326969222_);" d="M2341.747,1183.627
					c0,0-108.441,157.044-41.397,201.073c67.043,44.028,144.243-67.578,144.243-67.578s24.373-85.394-3.009-113.786
					C2414.203,1174.94,2341.747,1183.627,2341.747,1183.627z"/>
				
					<linearGradient id="SVGID_00000159449966099341726320000015952678528850142647_" gradientUnits="userSpaceOnUse" x1="2392.2004" y1="1167.6105" x2="3346.77" y2="2211.478">
					<stop  offset="0" style="stop-color:#09005D"/>
					<stop  offset="1" style="stop-color:#1A0F91"/>
				</linearGradient>
				<path style="fill:url(#SVGID_00000159449966099341726320000015952678528850142647_);" d="M2392.5,1145.698
					c0,0-50.771,12.897-57.542,36.072c-6.772,23.176,72.991,43.281,95.26,43.968l19.429,92.766c0,0,51.594-88.392,29.782-138.61
					C2457.62,1129.674,2392.5,1145.698,2392.5,1145.698z"/>
				
					<linearGradient id="SVGID_00000039121688927133553880000014805483970663996059_" gradientUnits="userSpaceOnUse" x1="-7306.0386" y1="2536.9417" x2="-7091.3779" y2="2783.7441" gradientTransform="matrix(0.9646 0.2639 -0.2639 0.9646 10111.1621 665.1306)">
					<stop  offset="0" style="stop-color:#FEBBBA"/>
					<stop  offset="1" style="stop-color:#FF928E"/>
				</linearGradient>
				<path style="fill:url(#SVGID_00000039121688927133553880000014805483970663996059_);" d="M2422.902,1306.043
					c0,0,42.376-50.705,60.078-18.38c17.701,32.327-37.949,57.707-57.608,42.012L2422.902,1306.043z"/>
				
					<linearGradient id="SVGID_00000152942894669881795520000004274190283636877202_" gradientUnits="userSpaceOnUse" x1="3151.1672" y1="2055.8428" x2="2736.3308" y2="2470.6792">
					<stop  offset="0" style="stop-color:#FEBBBA"/>
					<stop  offset="1" style="stop-color:#FF928E"/>
				</linearGradient>
				<path style="fill:url(#SVGID_00000152942894669881795520000004274190283636877202_);" d="M2226.283,2422.464
					c0.461,8.418-13.252,75.471-20.727,111.241c-3.008,14.392-0.51,29.363,6.996,42.005l286.307,464.66
					c3.464,5.621,6.017,11.728,7.612,18.134c5.463,21.934,16.927,75.719,12.186,124.895l-13.937,30.182l62.137-15.165
					l10.871-167.699l-17.829-10.481c-15.402-9.054-27.503-22.766-34.569-39.176c-26.192-60.82-91.294-215.663-108.653-291.356
					c-19.726-86.026-116.712-154.594-116.712-154.594l16.199-40.085L2226.283,2422.464z"/>
				
					<linearGradient id="SVGID_00000000937773244672375760000000388978320995891636_" gradientUnits="userSpaceOnUse" x1="6590.3921" y1="3141.6912" x2="6740.0972" y2="3141.6912" gradientTransform="matrix(-1 0.0066 0.0066 1 9204.791 -61.4477)">
					<stop  offset="0" style="stop-color:#09005D"/>
					<stop  offset="1" style="stop-color:#1A0F91"/>
				</linearGradient>
				<path style="fill:url(#SVGID_00000000937773244672375760000000388978320995891636_);" d="M2635.24,3139.668
					c0,0-34.538-52.852-38.835-73.572c-4.297-20.72-15.92-57.245-36.505-45.861c0,0-8.158,101.121-4.15,140.517
					c4.008,39.396-43.983,38.9-43.983,38.9s-13.191,2.071-22.716,11.906c-6.578,6.792-1.61,18.312,7.833,18.767
					c15.713,0.759,40.653,0.622,66.752-4.859c9.122-1.915,15.779-9.81,16.183-19.122l5.04-116.312l43.346,52.958L2635.24,3139.668z"
					/>
				
					<linearGradient id="SVGID_00000176021263759528179520000001483846397589938869_" gradientUnits="userSpaceOnUse" x1="2645.4731" y1="2634.439" x2="3444.7932" y2="1946.4177">
					<stop  offset="0" style="stop-color:#FEBBBA"/>
					<stop  offset="1" style="stop-color:#FF928E"/>
				</linearGradient>
				<path style="fill:url(#SVGID_00000176021263759528179520000001483846397589938869_);" d="M2394.008,2494.513
					c0,0,16.59,419.493,18.882,479.072c2.291,59.58-6.324,191.835-65.436,232.278l26.309,18.83c0,0,32.047-28.139,62.933-81.797
					c34.697-60.28,45.303-71.361,45.303-71.361l-12.222-24.041c-5.352-10.526-7.067-22.502-4.868-34.104
					c11.886-62.699,51.612-271.247,62.642-316.199c13.019-53.062,12.868-123.639-36.336-181.927
					C2442.012,2456.976,2394.008,2494.513,2394.008,2494.513z"/>
				
					<linearGradient id="SVGID_00000058556281343165909600000014433586246930598806_" gradientUnits="userSpaceOnUse" x1="6729.1895" y1="3168.73" x2="6907.6519" y2="3168.73" gradientTransform="matrix(-1 0.0066 0.0066 1 9204.791 -61.4477)">
					<stop  offset="0" style="stop-color:#09005D"/>
					<stop  offset="1" style="stop-color:#1A0F91"/>
				</linearGradient>
				<path style="fill:url(#SVGID_00000058556281343165909600000014433586246930598806_);" d="M2461.24,3242.202
					c1.853-0.012,3.408-1.365,3.639-3.204c1.764-14.023,9.136-70.245,15.676-84.879c7.491-16.758,31.707-87.173-1.505-92.583
					c0,0-80.394,121.613-95.938,138.085c-15.543,16.473-35.659,6.242-35.659,6.242s-15.325,4.797-26.699,19.825
					c-5.412,7.152-0.097,17.437,8.872,17.378l55.464-0.365c16.108-0.105,30.436-10.122,36.182-25.171
					c9.369-24.539,25.562-60.572,44.849-76.752l-8.589,97.402C2457.342,3240.351,2459.06,3242.217,2461.24,3242.202
					L2461.24,3242.202z"/>
				
					<linearGradient id="SVGID_00000134957431909628547470000014232076595696806027_" gradientUnits="userSpaceOnUse" x1="2786.564" y1="1737.103" x2="2078.2004" y2="2779.4087">
					<stop  offset="0" style="stop-color:#09005D"/>
					<stop  offset="1" style="stop-color:#1A0F91"/>
				</linearGradient>
				<path style="fill:url(#SVGID_00000134957431909628547470000014232076595696806027_);" d="M2316.923,1986.063
					c0,0,13.139,39.63-5.002,105.545l-112.396,417.804c-1.766,6.565,1.871,13.347,8.306,15.541
					c35.829,12.211,153.518,46.462,313.2,32.867c8.04-0.685,14.697-6.492,16.32-14.396c9.77-47.582,43.104-209.927,49.968-243.284
					c26.156-127.105,55.438-264.195-84.39-344.551C2439.54,1983.955,2380.267,2001.028,2316.923,1986.063z"/>
				
					<linearGradient id="SVGID_00000145033575775608007990000008560350590161823915_" gradientUnits="userSpaceOnUse" x1="2597.7334" y1="1447.3528" x2="2519.0239" y2="2565.9932">
					<stop  offset="0" style="stop-color:#FEBBBA"/>
					<stop  offset="1" style="stop-color:#FF928E"/>
				</linearGradient>
				<path style="fill:url(#SVGID_00000145033575775608007990000008560350590161823915_);" d="M2473.268,1624.944l135.928,292.799
					l13.901,247.688l28.845-11.557c20.446-94.214,27.736-187.267,20.804-279.064c-17.141-113.239-74.942-213.151-142.1-309.995
					C2483.959,1531.774,2468.604,1559.08,2473.268,1624.944z"/>
				
					<linearGradient id="SVGID_00000073683260753804047310000010952158859556905911_" gradientUnits="userSpaceOnUse" x1="2682.6748" y1="1421.1299" x2="2603.9653" y2="2539.7705">
					<stop  offset="0" style="stop-color:#FEBBBA"/>
					<stop  offset="1" style="stop-color:#FF928E"/>
				</linearGradient>
				<path style="fill:url(#SVGID_00000073683260753804047310000010952158859556905911_);" d="M2621.046,2096.679
					c-18.921,25.454-30.827,49.185-36.111,71.292c9.105,20.363,27.728,39.49,50.305,58.103
					c26.962-22.683,41.897-44.378,40.056-64.697l-16.018-76.571L2621.046,2096.679z"/>
			</g>
		</g>
		<g>
			<g>
				<g>
					
						<rect x="589.537" y="2650.723" transform="matrix(1 -0.0032 0.0032 1 -9.4117 3.7907)" style="fill:#91B3FA;" width="1165.557" height="547.025"/>
					<path style="opacity:0.5;fill:#FFFFFF;" d="M1690.226,2764.685l1.002,310.954c-25.028,0.081-45.835,24.282-45.746,51.996
						c0.003,0.88,0.184,0.657,0.24,4.233l-940.791,3.03c0.033-3.576,0.078-3.354,0.075-4.233
						c-0.089-27.715-20.609-50.942-46.055-50.86c-0.374,0.001-0.987-0.794-0.987-0.794l-0.979-303.956
						c42.903-0.138,46.964-29.167,46.875-56.881c-0.002-0.881-0.231-1.587-0.275-1.587l940.79-3.03
						c-0.044,0-0.224,0.708-0.221,1.589C1644.243,2742.86,1665.199,2764.766,1690.226,2764.685z"/>
					<g>
						
							<linearGradient id="SVGID_00000060024093678713213790000000091156295318641568_" gradientUnits="userSpaceOnUse" x1="7665.0698" y1="6943.769" x2="7547.8975" y2="8451.3867" gradientTransform="matrix(1 -0.0032 0.0032 1 -6505.1274 -4117.8735)">
							<stop  offset="0" style="stop-color:#50E7B7"/>
							<stop  offset="0.9964" style="stop-color:#323992"/>
						</linearGradient>
						
							<circle style="fill:url(#SVGID_00000060024093678713213790000000091156295318641568_);" cx="1173.171" cy="2922.049" r="170.969"/>
						<g>
							<path style="fill:#FFFFFF;" d="M1156.259,3037.432l-0.058-18.078c-18.848-0.695-37.503-5.082-50.761-10.835
								c-4.734-2.054-7.161-7.352-5.819-12.335l4.538-16.854c1.664-6.183,8.373-9.399,14.286-6.943
								c13.152,5.463,29.381,9.767,46.866,9.711c18.152-0.059,31.669-6.256,31.628-18.871
								c-0.036-11.383-10.518-18.117-35.768-24.804c-36.028-9.729-61.922-25.337-62.024-57.026
								c-0.092-28.614,20.76-50.525,57.044-56.486l-0.058-18.08c-0.019-5.817,4.682-10.548,10.5-10.567l10.621-0.034
								c5.818-0.018,10.548,4.682,10.567,10.5l0.052,16.232c17.441,0.642,30.145,3.583,40.231,7.091
								c5.167,1.796,8.005,7.348,6.59,12.632l-4.173,15.587c-1.609,6.011-8.017,9.32-13.845,7.139
								c-9.286-3.477-22.411-7.087-39.456-7.033c-21.537,0.069-27.66,9.011-27.635,17.01c0.032,9.845,12.975,16.571,40.999,25.097
								c40.035,11.871,56.701,28.43,56.798,58.273c0.088,27.381-20.137,52.059-59.498,58.341l0.065,20.232
								c0.018,5.817-4.683,10.549-10.5,10.567l-10.623,0.034C1161.009,3047.951,1156.277,3043.25,1156.259,3037.432z"/>
						</g>
					</g>
				</g>
				<path style="fill:#FFFFFF;" d="M620.908,2792.772c-0.101-0.26-0.158-0.541-0.159-0.836l-0.339-105.471
					c-0.003-1.286,1.033-2.329,2.318-2.333l284.234-0.915c1.285-0.006,2.338,1.03,2.334,2.316c0.002,1.286-1.033,2.329-2.318,2.333
					l-281.912,0.907l0.335,103.146c0.003,1.286-1.033,2.329-2.318,2.333C622.094,2794.256,621.246,2793.64,620.908,2792.772z"/>
				<path style="fill:#FFFFFF;" d="M1435.491,3163.774c-0.101-0.259-0.158-0.541-0.159-0.835c-0.003-1.286,1.034-2.329,2.318-2.333
					l281.915-0.909l-0.335-103.147c-0.002-1.286,1.033-2.329,2.318-2.333c1.285-0.006,2.337,1.025,2.334,2.316l0.34,105.473
					c0,0.618-0.243,1.21-0.677,1.648c-0.435,0.436-1.024,0.683-1.642,0.685l-284.238,0.916
					C1436.677,3165.258,1435.83,3164.643,1435.491,3163.774z"/>
			</g>
			<g>
				<g>
					
						<linearGradient id="SVGID_00000103226610276078104220000002297958885874872978_" gradientUnits="userSpaceOnUse" x1="1552.8119" y1="1906.9331" x2="879.968" y2="3662.3975">
						<stop  offset="0" style="stop-color:#4F52FF"/>
						<stop  offset="1" style="stop-color:#4042E2"/>
					</linearGradient>
					<polygon style="fill:url(#SVGID_00000103226610276078104220000002297958885874872978_);" points="1741.233,3209.743 
						575.683,3213.497 573.921,2666.475 1739.472,2662.721 					"/>
					<path style="opacity:0.5;fill:#FFFFFF;" d="M1675.489,2778.559l1.002,310.954c-25.028,0.081-45.835,24.282-45.746,51.996
						c0.003,0.88,0.184,0.657,0.24,4.233l-940.791,3.03c0.033-3.576,0.078-3.354,0.075-4.233
						c-0.089-27.714-20.609-50.942-46.055-50.86c-0.374,0.001-0.987-0.794-0.987-0.794l-0.979-303.955
						c42.903-0.138,46.964-29.167,46.875-56.881c-0.002-0.881-0.231-1.587-0.275-1.587l940.79-3.03
						c-0.044,0-0.224,0.708-0.221,1.589C1629.505,2756.734,1650.461,2778.639,1675.489,2778.559z"/>
					<g>
						
							<linearGradient id="SVGID_00000183954426227177267520000012819742598788304524_" gradientUnits="userSpaceOnUse" x1="7650.2876" y1="6957.5957" x2="7533.1157" y2="8465.2139" gradientTransform="matrix(1 -0.0032 0.0032 1 -6505.1274 -4117.8735)">
							<stop  offset="0" style="stop-color:#50E7B7"/>
							<stop  offset="0.9964" style="stop-color:#323992"/>
						</linearGradient>
						
							<circle style="fill:url(#SVGID_00000183954426227177267520000012819742598788304524_);" cx="1158.434" cy="2935.923" r="170.969"/>
						<g>
							<path style="fill:#FFFFFF;" d="M1141.521,3051.306l-0.058-18.078c-18.848-0.695-37.503-5.082-50.761-10.835
								c-4.734-2.054-7.162-7.352-5.819-12.335l4.538-16.854c1.665-6.183,8.373-9.399,14.286-6.943
								c13.152,5.463,29.381,9.767,46.866,9.711c18.152-0.059,31.669-6.256,31.628-18.871
								c-0.036-11.383-10.518-18.117-35.768-24.804c-36.028-9.729-61.922-25.337-62.024-57.026
								c-0.092-28.614,20.76-50.525,57.044-56.486l-0.058-18.08c-0.019-5.817,4.682-10.548,10.5-10.567l10.621-0.034
								c5.818-0.019,10.548,4.682,10.567,10.5l0.052,16.232c17.441,0.642,30.145,3.583,40.231,7.091
								c5.167,1.796,8.005,7.348,6.59,12.632l-4.173,15.587c-1.609,6.011-8.017,9.32-13.845,7.139
								c-9.286-3.478-22.411-7.087-39.456-7.033c-21.537,0.069-27.66,9.011-27.635,17.01c0.032,9.845,12.975,16.571,40.999,25.097
								c40.035,11.87,56.701,28.429,56.798,58.273c0.088,27.381-20.137,52.06-59.498,58.341l0.065,20.232
								c0.018,5.817-4.683,10.549-10.5,10.567l-10.623,0.034C1146.271,3061.825,1141.539,3057.124,1141.521,3051.306z"/>
						</g>
					</g>
				</g>
				<path style="fill:#FFFFFF;" d="M606.17,2806.646c-0.101-0.26-0.158-0.541-0.16-0.836l-0.339-105.471
					c-0.003-1.286,1.033-2.329,2.318-2.333l284.234-0.915c1.285-0.006,2.339,1.03,2.334,2.316c0.003,1.286-1.033,2.329-2.318,2.333
					l-281.911,0.907l0.335,103.146c0.003,1.286-1.033,2.329-2.318,2.333C607.356,2808.13,606.508,2807.514,606.17,2806.646z"/>
				<path style="fill:#FFFFFF;" d="M1420.754,3177.648c-0.101-0.259-0.158-0.541-0.159-0.835c-0.003-1.286,1.034-2.329,2.318-2.333
					l281.915-0.909l-0.335-103.147c-0.002-1.285,1.033-2.329,2.318-2.333c1.285-0.006,2.337,1.025,2.334,2.316l0.34,105.473
					c0,0.618-0.243,1.21-0.677,1.648c-0.435,0.436-1.024,0.683-1.642,0.685l-284.238,0.916
					C1421.94,3179.132,1421.092,3178.517,1420.754,3177.648z"/>
			</g>
			<g>
				<g>
					<g>
						
							<rect x="561.803" y="2681.354" transform="matrix(1 -0.0051 0.0051 1 -15.004 5.8558)" style="fill:#7D97F4;" width="1165.557" height="547.025"/>
						<path style="fill:#BDD0FB;" d="M1662.197,2794.884l1.581,310.952c-25.027,0.127-46.058,24.103-45.917,51.817
							c0.004,0.88-0.082,0.392-0.019,3.967l-940.784,4.782c0.027-3.575,0.073-3.087,0.069-3.967
							c-0.141-27.714-20.437-50.771-45.883-50.642c-0.374,0.001-0.722-0.661-0.722-0.661l-1.545-303.953
							c42.903-0.218,46.642-29.52,46.501-57.234c-0.005-0.88-0.501-1.852-0.546-1.852l940.783-4.781
							c-0.044,0,0.044,0.974,0.049,1.854C1615.906,2772.88,1637.17,2795.011,1662.197,2794.884z"/>
						<g>
							
								<ellipse transform="matrix(0.7071 -0.7071 0.7071 0.7071 -1752.903 1674.5458)" style="fill:#7D97F4;" cx="1144.904" cy="2953.214" rx="170.968" ry="170.969"/>
							<g>
								<path style="fill:#FFFFFF;" d="M1128.217,3068.638l-0.092-18.078c-18.85-0.659-37.513-5.012-50.781-10.74
									c-4.738-2.045-7.175-7.339-5.842-12.325l4.507-16.862c1.653-6.186,8.355-9.416,14.273-6.97
									c13.161,5.439,29.399,9.712,46.885,9.623c18.152-0.092,31.657-6.314,31.593-18.93
									c-0.058-11.382-10.552-18.097-35.814-24.737c-36.046-9.662-61.97-25.222-62.131-56.911
									c-0.146-28.614,20.665-50.563,56.938-56.592l-0.091-18.08c-0.029-5.817,4.663-10.557,10.48-10.586l10.621-0.054
									c5.818-0.03,10.557,4.662,10.587,10.479l0.083,16.232c17.443,0.61,30.151,3.528,40.244,7.016
									c5.17,1.787,8.019,7.332,6.614,12.62l-4.144,15.595c-1.598,6.014-8,9.336-13.832,7.165
									c-9.292-3.46-22.424-7.046-39.47-6.959c-21.536,0.11-27.643,9.063-27.603,17.062c0.05,9.845,13.006,16.546,41.046,25.02
									c40.057,11.795,56.754,28.324,56.905,58.167c0.139,27.381-20.04,52.097-59.389,58.452l0.103,20.231
									c0.03,5.817-4.663,10.558-10.48,10.587l-10.623,0.054C1132.986,3079.148,1128.246,3074.456,1128.217,3068.638z"/>
							</g>
						</g>
					</g>
					<path style="fill:#BDD0FB;" d="M589.71,2825.06c-0.32-0.396-0.511-0.9-0.515-1.45l-0.536-105.468
						c-0.003-0.616,0.239-1.209,0.673-1.646c0.433-0.439,1.024-0.688,1.64-0.69l287.81-1.464c1.281-0.002,2.325,1.033,2.337,2.315
						c0.008,1.283-1.027,2.329-2.313,2.337l-285.487,1.452l0.526,103.144c0.008,1.283-1.027,2.329-2.313,2.337
						C590.797,2825.928,590.138,2825.59,589.71,2825.06z"/>
					<path style="fill:#BDD0FB;" d="M1408.56,3194.526c-0.32-0.396-0.511-0.9-0.515-1.449c-0.008-1.283,1.027-2.329,2.313-2.337
						l281.911-1.432l-0.526-103.146c-0.008-1.283,1.027-2.329,2.313-2.336c1.28-0.003,2.325,1.033,2.336,2.315l0.538,105.47
						c0.002,0.616-0.238,1.209-0.673,1.647c-0.433,0.439-1.024,0.688-1.64,0.69l-284.235,1.444
						C1409.647,3195.394,1408.988,3195.056,1408.56,3194.526z"/>
				</g>
				<g>
					<path style="fill:#7D97F4;" d="M844.225,2970.567c0.136,26.747-21.436,48.539-48.182,48.675
						c-26.746,0.136-48.538-21.436-48.674-48.182c-0.136-26.746,21.436-48.539,48.182-48.675
						C822.297,2922.25,844.089,2943.821,844.225,2970.567z"/>
					
						<ellipse transform="matrix(0.5366 -0.8438 0.8438 0.5366 -1797.3231 2661.1416)" style="fill:#7D97F4;" cx="1524.421" cy="2967.11" rx="48.429" ry="48.429"/>
				</g>
			</g>
		</g>
	</g>
</g>
</svg>
