<svg xmlns="http://www.w3.org/2000/svg" width="2406.392" height="1141.894" viewBox="0 0 2406.392 1141.894">
  <path id="Tracé_84" data-name="Tracé 84" d="M2923.212,1354.654V1022.088H2806.277V776.531h-112.32V885.989h-93.011V634H2448.406V864.3l-45.575,1.446V633.564h-53.2V534.626h-31.922V468.185H2193.035v66.441h-31.922v98.938h-53.2V759.469l-24.518,1.482-7.441-372.582H1911.88v198.2l-57.742,1.482V278.261h-19.606v-65.5H1661.121v65.356h-19.755V695.595H1604.9V565.46h-30.4V501.767h-44.05v-185.8h-63.843v185.8h-44.05v63.658h-30.433V785.641h-21.244l-16.742-.217V530.288l-449.729,4.193v574.544h-38.06v-75.3h-136.8v144.594H690.082v-53.066h-86.65v107.758H516.82v121.6Z" transform="translate(-516.82 -212.76)" fill="#c2e3ec" opacity="0.3"/>
</svg>
