<svg xmlns="http://www.w3.org/2000/svg" xmlns:xlink="http://www.w3.org/1999/xlink" 
viewBox="0 0 3000 3000" width="3000" height="3000" style="width: 100%; height: 100%;
 transform: translate3d(0px, 0px, 0px); content-visibility: visible;" 
 
 
 preserveAspectRatio="xMidYMid meet" id="Withdrawal Receipt"><defs><clipPath id="__lottie_element_12264">
 <rect width="3000" height="3000" x="0" y="0"/></clipPath><g id="__lottie_element_12271"><g style="display: block;"
  transform="matrix(1,0,0,1,1500,1500)" opacity="1"><g opacity="1" transform="matrix(1,0,0,1,32,292)"><path fill="rgb(255,255,255)" 
  fill-opacity="1" d=" M740,-768 C740,-768 740,768 740,768 C740,768 -740,768 -740,768 C-740,768 -740,-768 -740,-768 C-740,-768 740,-768 740,-768z"/></g>
  </g></g><mask id="__lottie_element_12271_1" mask-type="alpha"><use a0:href="#__lottie_element_12271" xmlns:a0="http://www.w3.org/1999/xlink"/></mask>
  </defs><g clip-path="url(#__lottie_element_12264)"><g style="display: block;" 
  transform="matrix(1,0,0,1,483.34698486328125,570.4580078125)" opacity="1"><g opacity="1" transform="matrix(1,0,0,1,1016.6530151367188,431.25799560546875)">
  <path stroke-linecap="round" stroke-linejoin="round" fill-opacity="0" stroke="rgb(0,0,0)" 
  stroke-opacity="1" stroke-width="38.177" d=" M921.2100219726562,-190.69500732421875 C921.2100219726562,-190.69500732421875 921.2100219726562,335.81500244140625 921.2100219726562,335.81500244140625 C921.2100219726562,335.81500244140625 578.3599853515625,335.81500244140625 578.3599853515625,335.81500244140625 C578.3599853515625,335.81500244140625 578.3599853515625,25.415000915527344 578.3599853515625,25.415000915527344 C578.3599853515625,25.415000915527344 -578.3599853515625,25.415000915527344 -578.3599853515625,25.415000915527344 C-578.3599853515625,25.415000915527344 -578.3599853515625,335.81500244140625 -578.3599853515625,335.81500244140625 C-578.3599853515625,335.81500244140625 -921.2100219726562,335.81500244140625 -921.2100219726562,335.81500244140625 C-921.2100219726562,335.81500244140625 -921.2100219726562,-190.69500732421875 -921.2100219726562,-190.69500732421875 C-921.2100219726562,-270.8450012207031 -856.22998046875,-335.81500244140625 -776.0900268554688,-335.81500244140625 C-776.0900268554688,-335.81500244140625 776.0900268554688,-335.81500244140625 776.0900268554688,-335.81500244140625 C856.2310180664062,-335.81500244140625 921.2100219726562,-270.8450012207031 921.2100219726562,-190.69500732421875z"/></g><g opacity="1" transform="matrix(1,0,0,1,0,0)"><path stroke-linecap="round" stroke-linejoin="round" fill-opacity="0" stroke="rgb(0,0,0)" stroke-opacity="1" stroke-width="38.177" d=" M303.2239990234375,456.67401123046875 C303.2239990234375,456.67401123046875 1730.0799560546875,456.67401123046875 1730.0799560546875,456.67401123046875"/></g></g><g style="display: block;" mask="url(#__lottie_element_12271_1)"><g transform="matrix(1,0,0,1,483.3480224609375,570.4580078125)" opacity="1"><g opacity="1" transform="matrix(1,0,0,1,0,0)"><g opacity="1" transform="matrix(1,0,0,1,1016.6519775390625,1117.0670166015625)"><path stroke-linecap="round" stroke-linejoin="round" fill-opacity="0" stroke="rgb(0,0,0)" stroke-opacity="1" stroke-width="38.177" d=" M578.3599853515625,-660.39501953125 C578.3599853515625,-660.39501953125 578.3599853515625,604.5850219726562 578.3599853515625,604.5850219726562 C578.3599853515625,643.9849853515625 527.968994140625,660.39501953125 504.7690124511719,628.5650024414062 C504.7690124511719,628.5650024414062 481.96099853515625,597.2849731445312 481.96099853515625,597.2849731445312 C434.3210144042969,531.9249877929688 336.82000732421875,531.9249877929688 289.1789855957031,597.2849731445312 C265.3599853515625,629.9650268554688 229.07000732421875,646.3049926757812 192.77999877929688,646.3049926757812 C156.5,646.3049926757812 120.21900177001953,629.9650268554688 96.38899993896484,597.2849731445312 C72.56999969482422,564.60498046875 36.279998779296875,548.2650146484375 0,548.2650146484375 C-36.28099822998047,548.2650146484375 -72.57099914550781,564.60498046875 -96.38999938964844,597.2849731445312 C-120.22000122070312,629.9650268554688 -156.5,646.3049926757812 -192.781005859375,646.3049926757812 C-229.0709991455078,646.3049926757812 -265.3609924316406,629.9650268554688 -289.17999267578125,597.2849731445312 C-313,564.60498046875 -349.281005859375,548.2650146484375 -385.5710144042969,548.2650146484375 C-421.8609924316406,548.2650146484375 -458.1400146484375,564.60498046875 -481.9599914550781,597.2849731445312 C-481.9599914550781,597.2849731445312 -504.7699890136719,628.5650024414062 -504.7699890136719,628.5650024414062 C-527.969970703125,660.39501953125 -578.3610229492188,643.9849853515625 -578.3610229492188,604.5850219726562 C-578.3610229492188,604.5850219726562 -578.3610229492188,-660.39501953125 -578.3610229492188,-660.39501953125 C-578.3610229492188,-660.39501953125 578.3599853515625,-660.39501953125 578.3599853515625,-660.39501953125z"/></g><g opacity="1" transform="matrix(1,0,0,1,0,0)"><path stroke-linecap="round" stroke-linejoin="round" fill-opacity="0" stroke="rgb(0,0,0)" stroke-opacity="1" stroke-width="38.177" d=" M1339.43994140625,1286.9610595703125 C1339.43994140625,1286.9610595703125 693.8660278320312,1286.9610595703125 693.8660278320312,1286.9610595703125"/></g><g opacity="1" transform="matrix(1,0,0,1,0,0)"><path stroke-linecap="round" stroke-linejoin="round" fill-opacity="0" stroke="rgb(0,0,0)" stroke-opacity="1" stroke-width="38.177" d=" M1221.324951171875,1476.2659912109375 C1221.324951171875,1476.2659912109375 811.97998046875,1476.2659912109375 811.97998046875,1476.2659912109375"/></g><g opacity="1" transform="matrix(1,0,0,1,1018.6619873046875,871.8179931640625)"><path fill="rgb(0,0,0)" fill-opacity="1" d=" M127.1729965209961,169.9929962158203 C103.87799835205078,192.11399841308594 70.11399841308594,205.51800537109375 25.881999969482422,210.21600341796875 C25.881999969482422,210.21600341796875 25.881999969482422,251.90699768066406 25.881999969482422,251.90699768066406 C25.881999969482422,265.2030029296875 15.104000091552734,275.98199462890625 1.8070000410079956,275.98199462890625 C-11.48900032043457,275.98199462890625 -22.26799964904785,265.2030029296875 -22.26799964904785,251.90699768066406 C-22.26799964904785,251.90699768066406 -22.26799964904785,210.80299377441406 -22.26799964904785,210.80299377441406 C-51.242000579833984,208.83999633789062 -78.63800048828125,203.56399536132812 -104.4749984741211,194.947998046875 C-118.1719970703125,190.38600158691406 -130.38299560546875,185.16099548339844 -141.10899353027344,179.27499389648438 C-155.93699645996094,171.13800048828125 -162.11099243164062,153.0449981689453 -155.2270050048828,137.59500122070312 C-155.2270050048828,137.59500122070312 -155.10299682617188,137.31700134277344 -155.10299682617188,137.31700134277344 C-147.47000122070312,120.18399810791016 -126.98100280761719,113.16100311279297 -110.3550033569336,121.84200286865234 C-103.02999877929688,125.66699981689453 -95.197998046875,129.19000244140625 -86.85900115966797,132.41200256347656 C-66.11499786376953,140.4409942626953 -44.58100128173828,145.4320068359375 -22.26799964904785,147.38600158691406 C-22.26799964904785,147.38600158691406 -22.26799964904785,29.945999145507812 -22.26799964904785,29.945999145507812 C-50.06800079345703,23.295000076293945 -73.26200103759766,15.954999923706055 -91.85099792480469,7.927000045776367 C-110.447998046875,-0.09200000017881393 -126.00900268554688,-11.836000442504883 -138.53199768066406,-27.304000854492188 C-151.06500244140625,-42.76499938964844 -157.322998046875,-63.21500015258789 -157.322998046875,-88.66600036621094 C-157.322998046875,-120.375 -145.781005859375,-147.38600158691406 -122.6780014038086,-169.69900512695312 C-99.58499908447266,-192.01199340820312 -66.11499786376953,-205.3159942626953 -22.26799964904785,-209.6280059814453 C-22.26799964904785,-209.6280059814453 -22.26799964904785,-251.90699768066406 -22.26799964904785,-251.90699768066406 C-22.26799964904785,-265.2030029296875 -11.48900032043457,-275.98199462890625 1.8070000410079956,-275.98199462890625 C15.104000091552734,-275.98199462890625 25.881999969482422,-265.2030029296875 25.881999969482422,-251.90699768066406 C25.881999969482422,-251.90699768066406 25.881999969482422,-210.80299377441406 25.881999969482422,-210.80299377441406 C47.80099868774414,-209.6280059814453 69.23300170898438,-205.9029998779297 90.18000030517578,-199.64599609375 C99.7020034790039,-196.79600524902344 108.67900085449219,-193.54200744628906 117.11100006103516,-189.88400268554688 C133.21800231933594,-182.89599609375 140.72900390625,-164.25799560546875 134.125,-147.99000549316406 C127.32499694824219,-131.23899841308594 108.17400360107422,-123.36900329589844 91.48400115966797,-130.3159942626953 C70.51000213623047,-139.0469970703125 48.643001556396484,-144.73699951171875 25.881999969482422,-147.38600158691406 C25.881999969482422,-147.38600158691406 25.881999969482422,-28.77199935913086 25.881999969482422,-28.77199935913086 C54.06700134277344,-22.111000061035156 77.4540023803711,-14.871999740600586 96.0510025024414,-7.046000003814697 C114.63999938964844,0.7889999747276306 130.302001953125,12.432000160217285 143.0279998779297,27.891000747680664 C155.74400329589844,43.36000061035156 162.11099243164062,63.81100082397461 162.11099243164062,89.25299835205078 C162.11099243164062,120.96199798583984 150.45899963378906,147.88099670410156 127.1729965209961,169.9929962158203z M-66.30699920654297,-61.06800079345703 C-56.13199996948242,-53.233001708984375 -41.45199966430664,-46.58100128173828 -22.26799964904785,-41.10300064086914 C-22.26799964904785,-41.10300064086914 -22.26799964904785,-145.62399291992188 -22.26799964904785,-145.62399291992188 C-42.233001708984375,-142.48599243164062 -57.11399841308594,-136.22900390625 -66.89399719238281,-126.83399963378906 C-76.68399810791016,-117.43900299072266 -81.5739974975586,-105.88700103759766 -81.5739974975586,-92.18900299072266 C-81.5739974975586,
-79.27100372314453 -76.49099731445312,-68.89399719238281 -66.30699920654297,-61.06800079345703z M71.97699737548828,128.00900268554688 C81.95999908447266,119.00800323486328 86.95099639892578,107.85099792480469 86.95099639892578,94.53800201416016 C86.95099639892578,81.23500061035156 81.66600036621094,70.56400299072266 71.09600067138672,62.5359992980957 C60.5260009765625,54.516998291015625 45.45199966430664,47.763999938964844 25.881999969482422,42.27799987792969 C25.881999969482422,42.27799987792969 25.881999969482422,146.21099853515625 25.881999969482422,146.21099853515625 C46.62699890136719,143.08299255371094 61.99399948120117,137.01800537109375 71.97699737548828,128.00900268554688z"/></g></g></g></g></g></svg>