<svg xmlns="http://www.w3.org/2000/svg" width="35.424" height="40.039" viewBox="1625.578 2409.028 35.424 40.039"><g data-name="Group 1395"><path d="m1653.455 2435.134-8.548 4.98-14.679 8.548a2.936 2.936 0 0 1-2.77.11l19.57-20.01 6.427 6.372Z" fill="#d32f4c" fill-rule="evenodd" data-name="Path 1789"/><path d="m1647.013 2428.762-19.572 20.01a2.95 2.95 0 0 1-1.675-2.647l-.094-17.058-.094-17.026a3.082 3.082 0 0 1 .157-.98 2.967 2.967 0 0 1 1.565-1.73l19.713 19.431Z" fill="#00e2ff" fill-rule="evenodd" data-name="Path 1790"/><path d="m1659.585 2431.541-6.13 3.578-6.442-6.372 4.04-4.134 1.917-1.918 6.592 3.789a2.952 2.952 0 0 1 .023 5.057Z" fill="#f4ce2f" fill-rule="evenodd" data-name="Path 1791"/><path d="m1652.986 2422.656-1.895 1.934-4.04 4.133-19.672-19.43a2.92 2.92 0 0 1 2.685.133l14.756 8.478 8.166 4.752Z" fill="#00f076" fill-rule="evenodd" data-name="Path 1792"/></g></svg>